<?xml version="1.0" encoding="UTF-8"?>
<svg width="500px" height="389px" viewBox="0 0 500 389" version="1.1" xmlns="http://www.w3.org/2000/svg" xmlns:xlink="http://www.w3.org/1999/xlink">
    <title>PDS Illustration</title>
    <defs>
        <linearGradient x1="3.4145462%" y1="70.7450258%" x2="100.454136%" y2="35.0432936%" id="linearGradient-1">
            <stop stop-color="#98D4E3" offset="0%"></stop>
            <stop stop-color="#C7D4E3" offset="47%"></stop>
            <stop stop-color="#DAF1FB" offset="84%"></stop>
            <stop stop-color="#F0F0FA" offset="97%"></stop>
        </linearGradient>
        <linearGradient x1="50.0016678%" y1="-3.44051872%" x2="50.0016678%" y2="217.202594%" id="linearGradient-2">
            <stop stop-color="#E9EFF5" offset="0%"></stop>
            <stop stop-color="#CADEEE" offset="100%"></stop>
        </linearGradient>
        <linearGradient x1="0%" y1="50%" x2="100%" y2="50%" id="linearGradient-3">
            <stop stop-color="#DAF1FB" offset="0%"></stop>
            <stop stop-color="#C7D4E3" offset="53%"></stop>
            <stop stop-color="#98D4E3" offset="100%"></stop>
        </linearGradient>
        <linearGradient x1="65.5313848%" y1="36.6056879%" x2="34.8544854%" y2="56.538371%" id="linearGradient-4">
            <stop stop-color="#80E4CF" offset="0%"></stop>
            <stop stop-color="#83C7B5" offset="53%"></stop>
            <stop stop-color="#83AB9C" offset="100%"></stop>
        </linearGradient>
        <linearGradient x1="20.3464115%" y1="110.276298%" x2="125.225525%" y2="-67.667108%" id="linearGradient-5">
            <stop stop-color="#80E4CF" offset="0%"></stop>
            <stop stop-color="#83C7B5" offset="53%"></stop>
            <stop stop-color="#83AB9C" offset="100%"></stop>
        </linearGradient>
        <linearGradient x1="71.4102802%" y1="-3.60260802%" x2="40.5956984%" y2="70.1845508%" id="linearGradient-6">
            <stop stop-color="#80E4CF" offset="0%"></stop>
            <stop stop-color="#83C7B5" offset="53%"></stop>
            <stop stop-color="#83AB9C" offset="100%"></stop>
        </linearGradient>
        <linearGradient x1="26.3825926%" y1="8.50922754%" x2="84.2951827%" y2="105.006078%" id="linearGradient-7">
            <stop stop-color="#80E4CF" offset="0%"></stop>
            <stop stop-color="#83C7B5" offset="53%"></stop>
            <stop stop-color="#83AB9C" offset="100%"></stop>
        </linearGradient>
        <linearGradient x1="-149.838441%" y1="47.4235657%" x2="360.582733%" y2="53.8963139%" id="linearGradient-8">
            <stop stop-color="#DAF1FB" offset="0%"></stop>
            <stop stop-color="#C7D4E3" offset="53%"></stop>
            <stop stop-color="#98D4E3" offset="100%"></stop>
        </linearGradient>
        <linearGradient x1="-150.93017%" y1="46.1749177%" x2="361.942877%" y2="55.8963433%" id="linearGradient-9">
            <stop stop-color="#DAF1FB" offset="0%"></stop>
            <stop stop-color="#C7D4E3" offset="53%"></stop>
            <stop stop-color="#98D4E3" offset="100%"></stop>
        </linearGradient>
    </defs>
    <g id="PDS-Illustration" stroke="none" stroke-width="1" fill="none" fill-rule="evenodd">
        <g transform="translate(13.000000, 11.000000)" fill-rule="nonzero">
            <path d="M471.53,147.72 C469.23,173.54 457.63,206.88 437.21,239.44 L437.21,239.44 C426.112155,257.146353 413.067645,273.555133 398.32,288.36 L396.09,290.56 L395.8,290.84 L395.49,291.14 C389.92,296.56 384.05,301.79 377.89,306.77 C372.29,311.31 366.453333,315.643333 360.38,319.77 C340.982139,332.917691 319.694629,343.033725 297.25,349.77 L296.61,349.96 C293.943333,350.746667 291.243333,351.51 288.51,352.25 C288.366405,352.300512 288.219358,352.340616 288.07,352.37 C271.491177,356.814994 254.652026,360.224905 237.65,362.58 C228.76,363.82 219.72,364.81 210.65,365.5 C206.496667,365.82 202.336667,366.073333 198.17,366.26 C194.23,366.446667 190.29,366.57 186.35,366.63 C185.603333,366.63 184.853333,366.63 184.1,366.63 C181.49,366.63 178.88,366.63 176.28,366.63 C167.57,366.55 158.9,366.17 150.34,365.46 C131.092946,364.045409 112.057298,360.538048 93.57,355 C91.86,354.48 90.15,353.92 88.47,353.34 C88.2818148,353.291696 88.097874,353.228153 87.92,353.15 C79.3914641,350.26825 71.1026089,346.72066 63.13,342.54 C52.2986797,336.91062 42.3278048,329.761627 33.52,321.31 C15.34,303.6 3.59,280.01 1.52,249.31 C-7.06,120.9 88.34,91.75 174.37,80.58 C260.4,69.41 298.37,-14.42 394.45,3.49 C490.53,21.4 471.53,147.72 471.53,147.72 Z" id="Path" fill="url(#linearGradient-1)"></path>
            <rect id="Rectangle" fill="#D2E7F9" x="96.98" y="105.95" width="303.97" height="3.24"></rect>
            <rect id="Rectangle" fill="#D2E7F9" transform="translate(413.250000, 107.570000) rotate(180.000000) translate(-413.250000, -107.570000) " x="400.94" y="105.95" width="24.62" height="3.24"></rect>
            <rect id="Rectangle" fill="url(#linearGradient-2)" x="101.15" y="109.19" width="299.79" height="151.14"></rect>
            <rect id="Rectangle" fill="#D2E7F9" x="166.71" y="109.19" width="1.68" height="151.14"></rect>
            <rect id="Rectangle" fill="#E7E7E7" x="245.99" y="139.92" width="1.68" height="120.41"></rect>
            <rect id="Rectangle" fill="#E7E7E7" transform="translate(134.350000, 229.600000) rotate(90.000000) translate(-134.350000, -229.600000) " x="133.51" y="196.4" width="1.68" height="66.4"></rect>
            <rect id="Rectangle" fill="#D2E7F9" transform="translate(134.340000, 199.710000) rotate(90.000000) translate(-134.340000, -199.710000) " x="133.5" y="166.51" width="1.68" height="66.4"></rect>
            <rect id="Rectangle" fill="#D2E7F9" transform="translate(134.340000, 169.820000) rotate(90.000000) translate(-134.340000, -169.820000) " x="133.5" y="136.62" width="1.68" height="66.4"></rect>
            <rect id="Rectangle" fill="#D2E7F9" transform="translate(251.045000, 139.920000) rotate(90.000000) translate(-251.045000, -139.920000) " x="250.205" y="-9.975" width="1.68" height="299.79"></rect>
            <rect id="Rectangle" fill="#ECECEC" transform="translate(411.720000, 184.760000) rotate(180.000000) translate(-411.720000, -184.760000) " x="400.95" y="109.19" width="21.54" height="151.14"></rect>
            <rect id="Rectangle" fill="url(#linearGradient-3)" style="mix-blend-mode: color-burn;" x="316.23" y="76.41" width="48.84" height="29.54"></rect>
            <rect id="Rectangle" fill="#BAE7EB" transform="translate(371.095000, 91.180000) rotate(180.000000) translate(-371.095000, -91.180000) " x="365.08" y="76.41" width="12.03" height="29.54"></rect>
            <polygon id="Path" fill="#FFFFFF" points="349.98 88.36 343.47 88.36 343.47 81.85 337.83 81.85 337.83 88.36 331.32 88.36 331.32 94 337.83 94 337.83 100.51 343.47 100.51 343.47 94 349.98 94"></polygon>
            <path d="M138,357.13 C132.27,359.46 121.16,354.13 116.49,351.13 C107.394564,345.04875 101.678517,335.053073 101.05,324.13 C100.55,313.69 102.37,304.32 98.5,294.13 C95.42,285.99 88.5,280.79 81.37,276.55 C67.77,268.55 52.11,258.26 50.89,241.16 C50.46,235.21 50.76,230.29 47.51,224.91 C43.6,218.43 36.89,214.31 33,207.84 C28,199.51 32.06,189.84 41.63,186.95 C49.78,184.51 60.77,189.09 66.28,195.14 C72.87,202.35 76.18,211.95 83.06,219.05 C90.83,227.05 99.14,226.05 108.99,229.05 C127.88,234.84 138.52,253.75 140.63,272.05 C141.88,282.95 145.33,287.72 153.15,294.83 C159.15,300.27 166.15,306.21 169.68,313.58 C174.53,323.58 170.4,339.58 162.22,346.58 C157,351.12 147.07,357.31 138,357.13 Z" id="Path" fill="url(#linearGradient-4)"></path>
            <path d="M152.7,349.89 C152.766779,349.855327 152.819703,349.798874 152.85,349.73 C152.894641,349.645516 152.9028,349.546455 152.872583,349.455806 C152.842367,349.365157 152.776403,349.290802 152.69,349.25 C145.5,345.73 139.04,336.84 133.69,328.6 C126.98,318.31 122.69,306.28 120.04,290.74 C119.04,285.04 117.75,278.41 115.04,272.45 C111.51,264.59 106.66,260.27 99.65,254.57 C96.4,251.92 92.84,249.4 89.4,246.97 C80.88,240.97 72.06,234.69 66.62,225.68 C65.07261,222.996853 63.6835688,220.225448 62.46,217.38 C60.890699,213.576968 58.9301541,209.947447 56.61,206.55 C52.939673,201.472196 48.1492013,197.307907 42.61,194.38 C42.4332689,194.286112 42.2138884,194.353269 42.12,194.53 C42.0261116,194.706731 42.0932689,194.926112 42.27,195.02 C47.7096643,197.900537 52.4089249,202.000838 56,207 C58.2896011,210.361881 60.226507,213.950854 61.78,217.71 C63.0169665,220.57887 64.4193223,223.373565 65.98,226.08 C71.49,235.22 80.37,241.5 88.98,247.58 C92.41,250.01 95.98,252.52 99.19,255.15 C106.11,260.79 110.91,265.06 114.38,272.78 C117.02,278.66 118.38,285.23 119.29,290.89 C121.91,306.53 126.29,318.65 133.05,329.03 C138.48,337.34 145.05,346.32 152.35,349.93 C152.466174,349.974816 152.596933,349.959872 152.7,349.89 L152.7,349.89 Z" id="Path" fill="#81BD9A"></path>
            <path d="M315.71,281.19 C320.04,279.91 327.43,276.3 330.36,272.71 C332.74,269.81 333.06,266.16 334.68,262.9 C336.68,258.9 339.5,256.82 342.94,254.16 C349.136877,249.490226 353.720314,243.001394 356.05,235.6 C357.19,232.32 357.86,228.97 359.99,226.11 C362.88,222.23 367.34,219.99 369.59,215.6 C370.97,212.9 370.93,210.38 371.7,207.52 C372.85,203.25 375.38,200.14 377.96,196.6 C380.88,192.6 383.37,188.42 384.23,183.46 C384.72,180.64 384.23,178.3 385.3,175.46 C387.19,170.37 391.3,166.21 394,161.56 C396.36,157.45 395.63,155.43 396.28,151.23 C397.55,143.05 406.73,138.77 408.75,130.52 C409.75,126.52 410.65,119.87 404.75,121.73 C398.14,123.82 396.26,133.26 392.97,138.23 C389.55,143.39 385.07,145.62 382.97,151.96 C380.46,159.51 376.03,159.81 370.33,164.89 C364.63,169.97 364.33,177.76 360.04,183.64 C357.12,187.64 352.9,190.31 350.14,194.35 C347.38,198.39 348.8,200.65 347.88,204.89 C346.44,211.51 337.78,213.45 335.78,219.79 C334.88,222.65 335.84,225.73 334.47,228.52 C332.55,232.44 327.78,234.63 324.64,237.44 C321.02,240.69 321.34,242.8 319.73,246.79 C318.55,249.71 316.81,250.33 314.52,252.49 C309.89,256.85 306.86,264.72 305.81,270.92 C304.92,276.22 307.92,285.24 315.71,281.19 Z" id="Path" fill="#BAE7EB"></path>
            <path d="M346.59,256.19 C347.08,247.7 354.31,238 357.89,231.96 C359.35,229.5 362.89,221.77 366.66,221.62 C370.66,221.47 369.66,227.11 371.66,228.84 C374.01,222.93 377.95,217.38 381.03,211.74 C384.88,204.67 388.03,197.17 393.14,190.86 C402.62,179.24 399.95,195.8 399.83,201.52 C402.57,198.8 403.72,194.25 405.56,190.88 C410.057932,182.628494 415.16896,174.726289 420.85,167.24 C423.77,163.38 428.62,156.24 434.48,157.06 C440.82,158 438.98,167.52 437.4,171.95 C434.17,180.95 426.68,189.79 420.94,197.23 C418.658703,200.343334 416.098088,203.242018 413.29,205.89 C416.46,205.83 421.64,203.02 424.64,204.22 C428.78,205.86 427.22,211.64 425.11,214.64 C420.37,221.38 408.17,224.97 401.95,228.46 C406.26,228.67 419.36,227.08 413.44,234.75 C408.64,240.96 398.12,242.64 391.79,246.64 C394.79,247.29 400.94,246.36 402.93,249.73 C405.51,254.1 400.12,258.65 397.17,260.87 C387.78,268 377,273 365,272.13 C359.21,271.71 352.67,269.13 349,264.51 C347.182663,262.13655 346.322587,259.167325 346.59,256.19 Z" id="Path" fill="url(#linearGradient-5)"></path>
            <path d="M352.62,268.270016 C352.493557,268.270016 352.373337,268.215094 352.29,268.12 C352.144019,267.940395 352.170851,267.676541 352.35,267.53 C368.54,254.34 388.89,227.24 403.11,206.84 C418.53,184.71 430.27,165.46 430.38,165.27 C430.458598,165.141384 430.599842,165.06447 430.750526,165.068099 C430.901209,165.071991 431.03844,165.155855 431.110526,165.288231 C431.182611,165.420607 431.178598,165.581384 431.1,165.71 C430.98,165.9 419.23,185.17 403.8,207.31 C389.55,227.76 369.14,254.92 352.88,268.18 C352.806287,268.239052 352.714446,268.270016 352.62,268.270016 Z" id="Path" fill="#81BD9A"></path>
            <path d="M285.26,301.63 L285.72,304.89 L290.11,308.89 L291.62,308.02 L296.93,313.35 C297.584817,314.001536 298.35889,314.52098 299.21,314.88 L306.67,317.99 C307.913492,318.51328 309.281707,318.666076 310.61,318.43 C311.00943,318.35868 311.414257,318.321878 311.82,318.32 L316.82,318.32 C319.13172,318.320138 321.435019,318.041459 323.68,317.49 L329.53,316.02 C331.758196,315.466558 333.910706,314.643836 335.94,313.57 C336.61,313.21 337.28,312.81 337.94,312.4 L337.99,312.48 L362.17,292.48 C365.17,293.48 366.81,321.48 369.96,321.81 L374.02,322.2 C375.45,322.34 376.87,322.41 378.3,322.41 L379.08,322.41 L389.9,365.53 L275,365.53 L276.32,326.73 L277.65,318.52 L265.71,283.31 L261.46,277.88 L265.18,252.12 L274,238.45 L291.24,228.72 L297.24,229.81 L299.4,230.2 L322.16,238.71 L325.71,237.6 L330.48,239.27 L331.77,242.04 C331.77,242.04 336.19,273.25 340.34,284.72 L340.55,286.11 C338.815431,286.369851 337.063924,286.500211 335.31,286.5 C332.92571,286.498054 330.547461,286.26023 328.21,285.79 C324.60896,285.082762 320.927343,284.87748 317.27,285.18 L315.67,285.31 L309.52,278.62 L308.6,277.62 L298.09,280 L284.52,296.3 L285.26,301.63 Z" id="Path" fill="#2900CD"></path>
            <path d="M379.44,318.58 C379.44,318.58 362.39,247.86 435.8,228.09 C435.8,228.09 451.66,290.32 379.44,318.58 Z" id="Path" fill="url(#linearGradient-6)"></path>
            <path d="M379.44,318.58 C379.44,318.58 406.31,275.2 446.29,281.05 C446.29,281.05 433.55,325.38 379.44,318.58 Z" id="Path" fill="#BAE7EB"></path>
            <path d="M93.57,355 C93.17,357.78 92.78,359.38 92.78,359.38 C90.66,358.546667 88.6166667,357.686667 86.65,356.8 C78.2158996,353.103814 70.3073991,348.30895 63.13,342.54 C56.2604165,337.010392 50.3859252,330.3479 45.76,322.84 C29.47,296.19 36.43,268.89 36.43,268.89 C49.5,272.41 59.7,277.54 67.64,283.62 C72.4993463,287.297293 76.8240482,291.632092 80.49,296.5 C82.5517642,299.216053 84.3942402,302.091786 86,305.1 C88.1079508,309.089561 89.8194788,313.276274 91.11,317.6 C92.2814811,321.496673 93.1474373,325.478734 93.7,329.51 C94.8344881,337.971869 94.7907386,346.550143 93.57,355 Z" id="Path" fill="url(#linearGradient-7)"></path>
            <circle id="Oval" fill="#FFC0AB" cx="305.06" cy="186.77" r="5.59"></circle>
            <path d="M341.52,186.77 C341.52,183.682728 344.022728,181.18 347.11,181.18 C350.197272,181.18 352.7,183.682728 352.7,186.77 C352.7,189.857272 350.197272,192.36 347.11,192.36 C344.022728,192.36 341.52,189.857272 341.52,186.77 L341.52,186.77 Z" id="Path" fill="#FFC0AB"></path>
            <polygon id="Path" fill="#004DC4" points="285.26 301.63 291.62 308.02 290.11 308.89 285.72 304.89"></polygon>
            <path d="M309.5,278.62 L315.65,285.31 L313.73,285.48 L313.53,285.48 C312.708743,285.475688 311.940676,285.073012 311.47,284.4 C310.692266,283.282532 310.144948,282.021319 309.86,280.69 L309.42,278.69 L309.5,278.62 Z" id="Path" fill="#004DC4"></path>
            <path d="M374.15,290.94 L375.32,292.49 L375.42,292.89 L374.68,293.08 C373.19,293.46 371.68,293.89 370.26,294.4 L364.8,296.3 L357.08,297.94 L361.55,295.04 C363.370694,293.860509 364.951826,292.347237 366.21,290.58 C367.129673,289.285503 367.003937,287.521009 365.91,286.37 L363.14,283.44 C365.728537,284.1569 368.153358,285.36931 370.28,287.01 L370.47,287.15 C371.849252,288.255658 373.085433,289.52879 374.15,290.94 Z" id="Path" fill="#FFFFFF"></path>
            <path d="M404.29,297.73 L400.77,302.92 L400.77,302.92 C400.68,302.57 400.59,302.22 400.48,301.87 L397.11,291.23 L389.26,288.91 L382.66,291.45 C380.659074,291.706852 378.67547,292.084204 376.72,292.58 L375.46,292.88 L375.36,292.48 L374.19,290.93 C373.125433,289.51879 371.889252,288.245658 370.51,287.14 L370.32,287 C368.193358,285.35931 365.768537,284.1469 363.18,283.43 C362.62,283.283333 362.05,283.153333 361.47,283.04 L361.15,282.98 C358.163091,282.421913 355.08973,282.531188 352.15,283.3 L344.64,285.3 C343.303956,285.652879 341.948271,285.926687 340.58,286.12 L340.37,284.73 C336.22,273.26 331.8,242.05 331.8,242.05 L335.69,240.76 L338.29,228.76 L340.29,231.17 L364.9,240.42 L370.09,240.42 L376.01,246.52 L386.18,263.21 L386.74,267.31 L391.09,269.82 L398.39,288.53 L404.29,297.73 Z" id="Path" fill="#2900CD"></path>
            <path d="M338.24,228.72 L337.65,231.43 L335.65,240.75 L331.75,242 L330.46,239.23 L325.69,237.56 L322.14,238.67 L299.38,230.16 L297.22,229.77 L304.33,223.72 C307.54003,220.988032 309.389739,216.985203 309.39,212.77 L309.39,206.77 C312.765941,211.217076 317.875079,214.017102 323.44,214.47 C323.98,214.47 324.52,214.54 325.06,214.54 L327.42,214.54 C333.098967,214.546777 338.503155,212.096295 342.24,207.82 C342,208.41 336.65,219.2 338.24,228.72 Z" id="Path" fill="#FFDACC"></path>
            <path d="M339.82,311.09 L354.54,299.87 L354.54,299.87 L364.79,296.3 L370.25,294.4 C371.71,293.89 373.18,293.46 374.67,293.08 L375.41,292.89 L376.67,292.59 C378.62547,292.094204 380.609074,291.716852 382.61,291.46 L389.21,288.92 L397.06,291.24 L400.43,301.88 C400.54,302.23 400.63,302.58 400.72,302.93 C400.81,303.28 400.86,303.63 400.92,303.99 L402.28,313.29 C402.325178,313.581072 402.345252,313.875489 402.34,314.17 C402.343705,315.1144 402.124426,316.046337 401.7,316.89 C401.215593,317.874731 400.463525,318.703046 399.53,319.28 C398.604252,319.866358 397.5356,320.187991 396.44,320.21 C395.434888,320.236554 394.432666,320.330095 393.44,320.49 L385.34,321.81 C383.253794,322.158258 381.144735,322.352117 379.03,322.39 L378.25,322.39 C376.82,322.39 375.4,322.32 373.97,322.18 L369.91,321.79 C366.755705,321.480226 363.644232,320.829767 360.63,319.85 L338,312.48 L337.95,312.4 C338.58,312 339.21,311.55 339.82,311.09 Z" id="Path" fill="#FFC0AB"></path>
            <path d="M315.65,285.31 L317.25,285.18 C320.907343,284.87748 324.58896,285.082762 328.19,285.79 C330.527461,286.26023 332.90571,286.498054 335.29,286.5 C338.428342,286.486266 341.552626,286.079774 344.59,285.29 L352.1,283.29 C355.03973,282.521188 358.113091,282.411913 361.1,282.97 L361.42,283.03 C362,283.143333 362.57,283.273333 363.13,283.42 L365.9,286.35 C366.993937,287.501009 367.119673,289.265503 366.2,290.56 C364.941826,292.327237 363.360694,293.840509 361.54,295.02 L357.07,297.92 L354.54,299.85 L354.54,299.85 L339.82,311.07 C339.21,311.53 338.58,311.97 337.93,312.38 C337.28,312.79 336.61,313.19 335.93,313.55 C333.900706,314.623836 331.748196,315.446558 329.52,316 L323.67,317.47 C321.425019,318.021459 319.12172,318.300138 316.81,318.3 L311.81,318.3 C311.404257,318.301878 310.99943,318.33868 310.6,318.41 C309.271707,318.646076 307.903492,318.49328 306.66,317.97 L299.2,314.86 C298.34889,314.50098 297.574817,313.981536 296.92,313.33 L291.62,308 L285.26,301.61 L284.52,296.28 L298.09,280 L308.58,277.61 L309.5,278.61 L309.42,278.68 L309.86,280.68 C310.144948,282.011319 310.692266,283.272532 311.47,284.39 C311.940676,285.063012 312.708743,285.465688 313.53,285.47 L313.73,285.47 L315.65,285.31 Z" id="Path" fill="#FFDACC"></path>
            <path d="M298.08,315.18 C297.37,318.67 296.56,322.13 295.73,325.59 C295.52,326.49 295.3,327.39 295.07,328.28 L295.07,328.28 C294.44,330.83 293.78,333.37 293.12,335.91 C292.21,339.34 291.29,342.78 290.29,346.19 L288.8,351.31 C288.7,351.62 288.61,351.93 288.51,352.24 C288.08,353.63 287.67,355.02 287.2,356.4 C287.47,355.05 287.77,353.7 288.07,352.4 C288.16,352.01 288.24,351.61 288.33,351.22 L289.55,346.03 C290.37,342.57 291.26,339.13 292.16,335.7 C293.06,332.27 293.94,329.06 294.89,325.77 L294.89,325.77 L294.99,325.43 C296,322 297,318.57 298.08,315.18 Z" id="Path" fill="#004DC4"></path>
            <path d="M331.74,242 L332.79,247.35 L333.79,252.71 L335.79,263.41 C336.43,266.98 337.14,270.54 337.84,274.09 C338.19,275.87 338.58,277.64 338.98,279.41 L339.61,282.06 L340.33,284.68 C338.985851,281.294375 337.90269,277.810877 337.09,274.26 C336.21,270.73 335.47,267.17 334.81,263.59 C334.15,260.01 333.54,256.43 333.05,252.83 C332.56,249.23 332.06,245.67 331.74,242 Z" id="Path" fill="#004DC4"></path>
            <path d="M274.15,241.27 C277.651377,241.338255 281.104533,242.099581 284.31,243.51 C287.559078,244.796497 290.693574,246.355382 293.68,248.17 C295.19,249.03 296.68,250.02 298.11,250.94 C299.54,251.86 300.97,252.94 302.37,253.99 C303.77,255.04 305.14,256.09 306.5,257.18 L310.5,260.56 L310.5,260.56 C310.569497,260.620442 310.609581,260.707898 310.61,260.8 C310.55,264.05 310.44,267.31 310.29,270.56 C310.14,267.31 310.03,264.05 309.97,260.8 L310.08,261.04 L305.98,257.85 C304.62,256.79 303.21,255.77 301.83,254.73 C300.45,253.69 298.99,252.73 297.57,251.73 C296.15,250.73 294.7,249.8 293.21,248.93 L291,247.64 L288.73,246.4 C287.97,245.98 287.2,245.61 286.43,245.22 C285.66,244.83 284.88,244.46 284.08,244.12 C280.955031,242.615172 277.597376,241.651494 274.15,241.27 Z" id="Path" fill="#004DC4"></path>
            <path d="M287.2,238.1 C289.239522,238.87977 291.185042,239.886074 293,241.1 C294.830639,242.2834 296.568951,243.603848 298.2,245.05 C299.826821,246.495083 301.350542,248.052218 302.76,249.71 C303.48,250.53 304.13,251.41 304.76,252.26 C305.39,253.11 306,254.05 306.58,254.96 C305.1,253.37 303.68,251.75 302.16,250.23 C300.64,248.71 299.09,247.23 297.5,245.79 C295.91,244.35 294.22,243.03 292.5,241.73 C291.65,241.07 290.77,240.46 289.87,239.86 C288.97,239.26 288.14,238.65 287.2,238.1 Z" id="Path" fill="#004DC4"></path>
            <path d="M308.57,244.33 C310.25,247.33 311.76,250.53 313.21,253.69 C314.66,256.85 316,260.08 317.28,263.32 C318.56,266.56 319.7,269.86 320.71,273.2 C321.741381,276.532188 322.579443,279.921165 323.22,283.35 C322.68,281.69 322.22,280.01 321.64,278.35 C321.06,276.69 320.54,275.06 319.98,273.42 C318.8,270.15 317.6,266.9 316.34,263.66 C315.08,260.42 313.79,257.2 312.51,253.97 L308.57,244.33 Z" id="Path" fill="#004DC4"></path>
            <path d="M382.35,269.37 C381.47,270.49 380.54,271.58 379.62,272.68 C378.7,273.78 377.76,274.85 376.82,275.92 L376.82,275.92 C376.18,276.78 375.59,277.67 375.03,278.57 C374.47,279.47 373.95,280.41 373.47,281.36 C372.494882,283.306069 371.416684,285.198756 370.24,287.03 C370.932519,284.967192 371.730231,282.941205 372.63,280.96 C373.531103,278.943945 374.727574,277.073407 376.18,275.41 L376.18,275.41 C377.18,274.41 378.18,273.41 379.18,272.41 C380.18,271.41 381.29,270.33 382.35,269.37 Z" id="Path" fill="#004DC4"></path>
            <path d="M315.89,281.55 L315.04,274.55 L315.16,274.7 C311.7,273.47 308.26,272.16 304.81,270.89 L305.06,270.89 C301.89,271.95 298.71,272.94 295.54,273.95 L286,277 L286.29,276.76 L282.12,284.26 L278,291.76 L278.05,291.51 C278.66,295.51 279.3,299.51 279.88,303.57 L279.82,303.46 L288.49,311.29 L279.56,303.76 C279.524422,303.732738 279.499628,303.693776 279.49,303.65 L279.49,303.65 C278.71,299.65 278.01,295.65 277.26,291.65 C277.234623,291.568599 277.234623,291.481401 277.26,291.4 L277.26,291.4 L281.33,283.85 L285.43,276.31 C285.487934,276.198254 285.58913,276.115129 285.71,276.08 L295.27,273.13 C298.45,272.13 301.63,271.13 304.83,270.23 L304.83,270.23 C304.904604,270.20485 304.985396,270.20485 305.06,270.23 C308.46,271.61 311.89,272.96 315.28,274.38 L315.28,274.38 C315.341662,274.405712 315.384011,274.463461 315.39,274.53 L315.89,281.55 Z" id="Path" fill="#004DC4"></path>
            <path d="M400.14,292.14 C396.421627,291.444189 392.748358,290.525871 389.14,289.39 L389.45,289.39 C388.3,289.83 387.14,290.22 385.96,290.6 C384.78,290.98 383.59,291.3 382.38,291.6 C383.47,291 384.58,290.45 385.7,289.94 C386.82,289.43 387.96,288.94 389.1,288.5 C389.201196,288.470276 389.308804,288.470276 389.41,288.5 L389.41,288.5 C393.058005,289.491893 396.641456,290.707527 400.14,292.14 L400.14,292.14 Z" id="Path" fill="#C3F5FF"></path>
            <path d="M338.24,228.72 L337.65,231.43 C336.848354,231.263252 336.062226,231.029086 335.3,230.73 C328.37,228.01 324.42,221.52 323.44,214.48 C323.98,214.48 324.52,214.55 325.06,214.55 L327.42,214.55 C333.098967,214.556777 338.503155,212.106295 342.24,207.83 C342,208.41 336.65,219.2 338.24,228.72 Z" id="Path" fill="#FFC0AB"></path>
            <path d="M353.48,167 C353.459577,166.706455 353.399013,166.417096 353.3,166.14 L350.94,159.52 C350.721296,158.913051 350.332478,158.381899 349.82,157.99 L347.39,156 C347.201233,155.861191 347.029985,155.700016 346.88,155.52 L344.15,152.27 C343.583376,151.590446 342.770923,151.16265 341.89,151.08 L339.89,150.87 C339.546105,150.836769 339.209075,150.752512 338.89,150.62 L335.33,149.08 C335.222467,149.044027 335.112069,149.017264 335,149 L328,146.88 C327.493715,146.732159 326.961018,146.698012 326.44,146.78 L318.83,148.08 C318.591689,148.123318 318.357508,148.186882 318.13,148.27 L313.07,150.27 C312.516666,150.484322 311.918436,150.556523 311.33,150.48 C311.173704,150.46475 311.016296,150.46475 310.86,150.48 C309.847356,150.48064 308.887379,150.931317 308.24,151.71 L305.83,154.61 C305.577744,154.921566 305.269021,155.182792 304.92,155.38 L302.32,156.89 C301.757558,157.205908 301.298982,157.678381 301,158.25 L297.21,165.47 C297.057385,165.769287 296.949567,166.089371 296.89,166.42 L295.25,174.96 C295.2245,175.214355 295.241396,175.471178 295.3,175.72 C295.978611,178.491388 298.706054,180.248194 301.51,179.72 L305.44,179.03 L305.44,177.13 L309.64,175 C311.923558,173.832601 314.436715,173.183824 317,173.1 L336.05,172.67 C340.026774,172.589018 343.910494,173.877707 347.05,176.32 L347.05,177.62 L347.64,177.94 C349.13948,178.739632 350.998868,178.313167 352,176.94 L353.31,175.14 C353.790796,174.474538 354.014571,173.657584 353.94,172.84 L353.48,167 Z" id="Path" fill="#2900CD"></path>
            <path d="M347.1001,177.62 L347.1001,194.86 C347.109983,197.989555 346.369268,201.075865 344.94,203.86 L344.94,203.86 C344.208388,205.29957 343.301502,206.643106 342.24,207.86 L342.24,207.86 C338.499256,212.136768 333.091889,214.587038 327.41,214.580015 L325.06,214.580015 C314.185513,214.580015 305.37,205.764487 305.37,194.89 L305.37,177.09 L309.57,174.96 C311.878007,173.796461 314.416014,173.161106 317,173.1 L336.05,172.67 C340.026774,172.589018 343.910494,173.877707 347.05,176.32 L347.1001,177.62 Z" id="Path" fill="#FFDACC"></path>
            <path d="M318.94,189.41 C318.94,190.66 316.83,191.68 314.24,191.68 C311.65,191.68 309.53,190.68 309.53,189.41 C309.53,188.14 311.64,187.14 314.24,187.14 C316.84,187.14 318.94,188.16 318.94,189.41 Z" id="Path" fill="#FFBCD8"></path>
            <path d="M344.79,189.41 C344.79,190.66 342.68,191.68 340.08,191.68 C337.48,191.68 335.38,190.68 335.38,189.41 C335.38,188.14 337.49,187.14 340.08,187.14 C342.67,187.14 344.79,188.16 344.79,189.41 Z" id="Path" fill="#FFBCD8"></path>
            <path d="M328.32,184 C328.901571,186.665962 329.160097,189.392241 329.09,192.12 C328.787818,190.802827 328.577313,189.46629 328.46,188.12 C328.321197,186.751346 328.274425,185.374919 328.32,184 L328.32,184 Z" id="Path" fill="#1D232A"></path>
            <path d="M317.86,184.08 C317.86,183.594645 317.567629,183.157082 317.11922,182.971345 C316.670811,182.785607 316.154669,182.888274 315.811472,183.231472 C315.468274,183.574669 315.365607,184.090811 315.551345,184.53922 C315.737082,184.987629 316.174645,185.28 316.66,185.28 C317.322742,185.28 317.86,184.742742 317.86,184.08 Z" id="Path" fill="#1D232A"></path>
            <path d="M308.84,181.83 C309.438033,180.782027 310.318033,179.922815 311.38,179.35 C312.440352,178.736077 313.620394,178.357509 314.84,178.24 C316.050556,178.142221 317.26868,178.274552 318.43,178.63 C318.997334,178.803911 319.549233,179.02467 320.08,179.29 C320.598663,179.584217 321.093507,179.918571 321.56,180.29 C320.96,180.23 320.41,180.11 319.85,180.02 C319.29,179.93 318.74,179.84 318.2,179.81 C317.128756,179.715283 316.051244,179.715283 314.98,179.81 C312.80577,180.004839 310.705222,180.695899 308.84,181.83 L308.84,181.83 Z" id="Path" fill="#1D232A"></path>
            <path d="M311.62,184.38 C312.92249,183.079701 314.661745,182.309868 316.5,182.22 C317.416694,182.161349 318.336206,182.276712 319.21,182.56 C319.644396,182.697071 320.06875,182.864139 320.48,183.06 C320.87,183.28 321.25,183.52 321.63,183.77 C320.816684,183.415533 319.973333,183.134416 319.11,182.93 C318.264346,182.737491 317.396039,182.663449 316.53,182.71 C315.663601,182.760006 314.80855,182.93169 313.99,183.22 C313.153995,183.504574 312.357599,183.894371 311.62,184.38 Z" id="Path" fill="#1D232A"></path>
            <path d="M334.15,184.25 C334.074098,183.76945 334.295854,183.290625 334.711447,183.037699 C335.12704,182.784772 335.654219,182.8078 336.046174,183.096003 C336.43813,183.384205 336.617288,183.880542 336.499772,184.352644 C336.382256,184.824745 335.991325,185.179175 335.51,185.25 C334.859207,185.345762 334.252626,184.899746 334.15,184.25 Z" id="Path" fill="#1D232A"></path>
            <path d="M343.64,181.1 C341.905624,180.178403 339.991163,179.646039 338.03,179.54 C337.06263,179.502215 336.093816,179.528941 335.13,179.62 C334.64,179.62 334.13,179.74 333.64,179.78 C333.15,179.82 332.64,179.94 332.08,179.97 C332.500341,179.640336 332.944934,179.342827 333.41,179.08 C333.893513,178.845912 334.391144,178.642184 334.9,178.47 C335.939141,178.135963 337.02962,177.99034 338.12,178.04 C339.225498,178.10744 340.304949,178.403693 341.29,178.91 C342.270725,179.394362 343.0878,180.155806 343.64,181.1 Z" id="Path" fill="#1D232A"></path>
            <path d="M340.37,183.65 C339.565666,183.279549 338.719542,183.007581 337.85,182.84 C336.99685,182.676958 336.125188,182.633207 335.26,182.71 C334.39648,182.787467 333.54816,182.986082 332.74,183.3 C331.916416,183.625916 331.123317,184.024139 330.37,184.49 C330.71,184.2 331.05,183.9 331.37,183.63 C331.74609,183.374646 332.140492,183.147363 332.55,182.95 C333.372717,182.542806 334.265108,182.295108 335.18,182.22 C337.027684,182.03408 338.878285,182.543976 340.37,183.65 L340.37,183.65 Z" id="Path" fill="#1D232A"></path>
            <path d="M344.94,203.83 L344.94,203.83 C341.566816,210.402976 334.797987,214.534548 327.41,214.53002 L325.06,214.53002 C318.907657,214.538719 313.107103,211.662504 309.39,206.76 L309.39,206.76 C309.39,206.76 311.39,202.39 309.39,192.68 C309.39,192.68 327.73,182.4 344.95,192.34 C344.94,192.35 342.42,198.56 344.94,203.83 Z" id="Path" fill="#FFFFFF"></path>
            <path d="M343.81,205.32 C343.684358,205.320925 343.562974,205.274513 343.47,205.19 C343.278217,204.992186 343.278217,204.677814 343.47,204.48 C346.99,200.64 346.64,192.48 346.64,192.38 C346.631823,192.248334 346.677082,192.118933 346.76554,192.021065 C346.853997,191.923197 346.97818,191.865131 347.11,191.86 C347.243061,191.845762 347.375883,191.888919 347.475161,191.978651 C347.574439,192.068384 347.63076,192.196181 347.63,192.33 C347.63,192.68 348.01,201.02 344.21,205.16 C344.108521,205.272231 343.960885,205.331285 343.81,205.32 L343.81,205.32 Z" id="Path" fill="#FFFFFF"></path>
            <path d="M310.91,208.14 C310.821747,208.140601 310.735108,208.116343 310.66,208.07 C307.66,206.37 304.88,193.88 304.57,192.46 C304.54039,192.331228 304.564041,192.195956 304.635588,192.08487 C304.707134,191.973784 304.820512,191.896302 304.95,191.87 C305.080002,191.840214 305.216517,191.863602 305.329191,191.934962 C305.441865,192.006322 305.52136,192.119741 305.55,192.25 C306.37,195.98 308.98,205.95 311.16,207.25 C311.352873,207.364417 311.445972,207.593258 311.387755,207.809827 C311.329537,208.026395 311.134245,208.177711 310.91,208.18 L310.91,208.14 Z" id="Path" fill="#FFFFFF"></path>
            <path d="M316.48,199.4 C317.56,199.51 318.63,199.63 319.71,199.66 C320.79,199.69 321.86,199.76 322.93,199.75 C325.067397,199.735893 327.201722,199.585589 329.32,199.3 C331.43506,199.016032 333.52244,198.5544 335.56,197.92 L337.09,197.43 L338.57,196.82 C339.57,196.48 340.51,195.89 341.52,195.47 C339.778981,196.79275 337.860077,197.863297 335.82,198.65 C333.773367,199.449516 331.638052,200.000132 329.46,200.29 C327.289503,200.581409 325.095591,200.658447 322.91,200.52 C320.730849,200.394132 318.573372,200.018335 316.48,199.4 L316.48,199.4 Z" id="Path" fill="#EBEBEB"></path>
            <path d="M313.09,203.78 C314.136011,204.247181 315.207741,204.654505 316.3,205 C319.53001,206.068457 322.899102,206.658048 326.3,206.75 C327.424708,206.77513 328.549928,206.735063 329.67,206.63 C330.23,206.57 330.79,206.47 331.34,206.4 C331.899674,206.324724 332.45409,206.214509 333,206.07 C333.55,205.94 334.11,205.84 334.65,205.67 L336.25,205.11 C337.35,204.79 338.33,204.19 339.41,203.78 C337.519474,205.115397 335.421183,206.129064 333.2,206.78 L332.36,207.04 C332.08,207.12 331.79,207.16 331.5,207.22 C330.93,207.32 330.36,207.45 329.78,207.53 C326.293555,207.940824 322.759839,207.627623 319.4,206.61 C317.168865,205.982316 315.042612,205.028703 313.09,203.78 Z" id="Path" fill="#EBEBEB"></path>
            <path d="M302.55,174.36 C304.318241,173.250909 306.151547,172.249103 308.04,171.36 C309.966732,170.517446 311.97822,169.883828 314.04,169.47 C316.111247,169.088608 318.213989,168.90445 320.32,168.92 L326.57,168.76 C328.65,168.76 330.73,168.64 332.86,168.76 C334.971149,168.905356 337.058375,169.294614 339.08,169.92 C343.116993,171.150651 346.820661,173.284621 349.91,176.16 C348.259389,174.893958 346.491317,173.788913 344.63,172.86 C342.795178,171.920594 340.863886,171.182948 338.87,170.66 C336.883244,170.133588 334.850625,169.798725 332.8,169.66 C330.8,169.54 328.67,169.66 326.59,169.72 L320.34,169.79 C318.275923,169.757184 316.212562,169.890951 314.17,170.19 C312.119346,170.501038 310.107884,171.030723 308.17,171.77 C306.28,172.48 304.45,173.5 302.55,174.36 Z" id="Path" fill="#004DC4"></path>
            <path d="M309.2,175.14 C308.35659,176.757729 307.917411,178.555615 307.92,180.38 C307.831084,181.304353 307.559138,182.201775 307.12,183.02 C306.56,184.32 307.52,187.77 305.95,188.42 C304.74,187.42 305.24,185.42 305.13,184.06 C305.05,183.01 305.13,182.79 304.13,182.37 C303.45,182.09 302.66,182.08 301.97,181.76 C301.806274,181.314569 301.806274,180.825431 301.97,180.38 C302.18,179.89 302.19,180.06 302.66,179.79 C302.85,179.68 303.22,179.79 303.36,179.67 C303.5,179.55 303.43,179.1 303.57,178.91 C303.774838,178.614527 304.036624,178.36294 304.34,178.17 C305.2,177.59 304.89,177.3 305.34,177.09 C306.43,176.62 306.65,176.09 307.79,175.84 C308.2,175.47 308.38,175.48 309.2,175.14 Z" id="Path" fill="#1D232A"></path>
            <path d="M310.13,194.51 C309.906646,194.513439 309.709238,194.365383 309.65,194.15 C309.65,194.07 307.33,186.08 304.65,181.43 C304.537746,181.275647 304.523153,181.070853 304.612388,180.902143 C304.701623,180.733433 304.879117,180.630239 305.069881,180.636159 C305.260645,180.642079 305.431399,180.756081 305.51,180.93 C308.28,185.69 310.51,193.54 310.63,193.88 C310.666876,194.005997 310.651649,194.141522 310.587733,194.256195 C310.523817,194.370868 310.416558,194.455097 310.29,194.49 C310.238865,194.508679 310.18416,194.515517 310.13,194.51 L310.13,194.51 Z" id="Path" fill="#FFFFFF"></path>
            <path d="M342.34,173.41 C342.34,175.07 343.05,176.16 343.81,177.62 C344.35,178.62 344.18,179.71 344.89,180.62 C345.382056,181.221473 345.776843,181.896322 346.06,182.62 C346.31,183.31 346.31,183.96 346.96,184.39 C347.53,183.77 347.51,182.84 347.75,182.08 C348.1063,181.14579 348.269586,180.149065 348.23,179.15 C348.196035,178.707263 348.084327,178.273972 347.9,177.87 C347.73,177.49 347.68,177.04 347.52,176.66 C347.22,175.94 346.12,175.4 345.45,174.91 C344.53386,174.191214 343.472851,173.679473 342.34,173.41 Z" id="Path" fill="#1D232A"></path>
            <path d="M344.18,193.61 L344,193.61 C343.876596,193.561032 343.777734,193.464996 343.725209,193.343064 C343.672685,193.221131 343.67081,193.083315 343.72,192.96 C345.032604,189.106864 345.999751,185.144573 346.61,181.12 C346.669614,180.854838 346.920141,180.677742 347.19,180.71 C347.46096,180.76075 347.642549,181.017632 347.6,181.29 C346.968057,185.37312 345.963871,189.389862 344.6,193.29 C344.53041,193.466478 344.368619,193.589748 344.18,193.61 Z" id="Path" fill="#FFFFFF"></path>
            <path d="M110.77,189.83 C111.758544,192.514775 111.342154,195.515784 109.66,197.83 C107.51,200.24 104.58,201.89 104.51,205.64 C104.46,208.39 106.88,210.96 104.65,213.4 C103.09,215.12 100.65,215.64 99.08,217.4 C93.08,224.02 100.08,234.27 108.08,234.49 C114.08,234.66 122.32,231.49 124.96,225.7 C126.81,221.64 126.32,216.76 126.02,212.45 C125.72,208.14 123.78,203.15 121.93,199.33 C120.660426,196.55369 118.894835,194.032384 116.72,191.89 C115.67,191 112.94,188.7 110.77,189.83 Z" id="Path" fill="#1D232A"></path>
            <path d="M149.3,190.22 C149.34865,192.262619 149.935026,194.2563 151,196 C153,199.47 156.38,200.16 159.69,201.91 C164.41,204.43 170.46,209.27 168.16,215.52 C167.16,218.15 167.04,219.17 168.16,221.95 C169.93,226.56 167.03,230.57 162.79,232.43 C157.31,234.82 151,232.79 146.89,228.72 C142.15,224.04 141.11,214.72 140.89,208.45 C140.69,203.3 141.74,189.59 149.3,190.22 Z" id="Path" fill="#1D232A"></path>
            <path d="M91.88,296.76 L91.88,296.76 L89.52,298.64 L88.42,299.51 L87.98,299.38 C82.3190854,297.808219 77.0586611,295.046752 72.55,291.28 C70.3049676,289.46775 68.4681853,287.20159 67.16,284.63 L87.66,242.9 C89.2701619,239.60661 92.0306402,237.016883 95.42,235.62 L106.42,231.07 L106.77,231.91 L106.24,232.69 C103.990691,236.072041 102.462256,239.881214 101.75,243.88 L94.94,282.26 L142.25,286.26 L148.51,268.58 C149.831416,264.840899 150.920164,261.023603 151.77,257.15 L153.59,248.84 C154.380041,245.186733 155.867194,241.720103 157.97,238.63 L162.5,231.93 L163.5,230.07 L176.71,237.26 C179.633701,238.856379 181.73667,241.625166 182.49,244.87 L196,302.87 C189.727213,301.029279 183.33093,299.639073 176.86,298.71 C162.51,296.78 157.38,299.44 157.15,299.56 L160.4,295.83 C160.985103,295.155822 161.03463,294.169394 160.52,293.44 L159.78,292.44 C160.332545,292.127267 160.815679,291.705376 161.2,291.2 C161.615251,290.663467 161.795617,289.981684 161.7,289.31 L161.7,289.18 C161.609834,288.474328 161.011396,287.944283 160.3,287.94 L160,287.94 C159.689953,287.992781 159.371465,287.92479 159.11,287.75 C158.844971,287.580589 158.649747,287.321473 158.56,287.02 C158.44625,286.640121 158.166549,286.332212 157.799312,286.182597 C157.432076,286.032982 157.016833,286.057766 156.67,286.25 L147.55,291.39 C145.97836,292.278029 144.739077,293.654229 144.02,295.31 L143.63,296.22 C143.030704,297.6143 142.132955,298.860227 141,299.87 C139.971994,300.788233 139.076745,301.845031 138.34,303.01 L134.34,310.14 L126.51,309.67 L103.6,303.59 L99,302.82 C97.1895815,301.207178 95.0295966,300.036473 92.69,299.4 L91.88,296.76 Z" id="Path" fill="#86B0F1"></path>
            <path d="M157.1,235.16 L125,259.07 L120,236.63 L117.71,226.37 L120.49,222.37 C121.785677,220.548294 122.398192,218.328372 122.22,216.1 L121.71,209.4 L141.98,201.76 L148.08,199.46 L149.85,217.23 C150.073012,219.492252 151.166699,221.579222 152.9,223.05 L156.75,226.35 L157.1,235.16 Z" id="Path" fill="#FFC7A8"></path>
            <path d="M144.91,202.65 C144.91,202.65 144.7,230.3 119.91,236.65 L117.62,226.39 L120.4,222.39 C121.695677,220.568294 122.308192,218.348372 122.13,216.12 L121.62,209.42 L141.89,201.78 C142.883333,202.033333 143.89,202.323333 144.91,202.65 Z" id="Path" fill="#F8A386"></path>
            <circle id="Oval" fill="#F8A386" cx="148.04" cy="186.13" r="5.59"></circle>
            <path d="M149.17,195.84 C149.132368,205.779976 141.488386,214.035007 131.580621,214.83545 C121.672855,215.635893 112.80282,208.715021 111.17,198.91 L106.83,172.42 L114.83,160.86 L131.26,160.86 L146.26,166.05 L149.01,193.95 C149.116667,194.59 149.17,195.22 149.17,195.84 Z" id="Path" fill="#FFC7A8"></path>
            <ellipse id="Oval" fill="#FCB094" transform="translate(138.279493, 190.193121) rotate(-8.590000) translate(-138.279493, -190.193121) " cx="138.279493" cy="190.193121" rx="4.7" ry="2.27"></ellipse>
            <path d="M120.15,192.89 C120.35,194.13 118.43,195.46 115.87,195.89 C113.31,196.32 111.06,195.63 110.87,194.4 C110.68,193.17 112.59,191.82 115.15,191.4 C117.71,190.98 120,191.65 120.15,192.89 Z" id="Path" fill="#FCB094"></path>
            <path d="M118.57,188.08 C118.57,187.417258 118.032742,186.88 117.37,186.88 C116.707258,186.88 116.17,187.417258 116.17,188.08 C116.17,188.742742 116.707258,189.28 117.37,189.28 C118.032742,189.28 118.57,188.742742 118.57,188.08 Z" id="Path" fill="#1D232A"></path>
            <path d="M112.83,187.55 C113.37297,187.134035 113.972294,186.797336 114.61,186.55 C115.252881,186.295494 115.924569,186.120855 116.61,186.03 C117.298547,185.941682 117.99652,185.958541 118.68,186.08 C119.357281,186.199711 120.005524,186.447469 120.59,186.81 C119.936416,186.628066 119.266527,186.510836 118.59,186.46 C117.922681,186.41565 117.252585,186.439104 116.59,186.53 C115.300688,186.719861 114.038505,187.062261 112.83,187.55 L112.83,187.55 Z" id="Path" fill="#1D232A"></path>
            <path d="M135.09,185.3 C135.09,184.814645 134.797629,184.377082 134.34922,184.191345 C133.900811,184.005607 133.384669,184.108274 133.041472,184.451472 C132.698274,184.794669 132.595607,185.310811 132.781345,185.75922 C132.967082,186.207629 133.404645,186.5 133.89,186.5 C134.552742,186.5 135.09,185.962742 135.09,185.3 Z" id="Path" fill="#1D232A"></path>
            <path d="M129.4,184.62 C129.940544,184.200367 130.540424,183.863356 131.18,183.62 C131.821382,183.36093 132.493656,183.186138 133.18,183.1 C133.867981,183.001458 134.567579,183.018357 135.25,183.15 C135.927281,183.269711 136.575524,183.517469 137.16,183.88 C136.507563,183.693037 135.837155,183.575715 135.16,183.53 C134.493019,183.482337 133.822924,183.50244 133.16,183.59 C131.870309,183.783265 130.608136,184.129019 129.4,184.62 Z" id="Path" fill="#1D232A"></path>
            <path d="M123.52,186.88 C123.889267,189.591604 124.089653,192.323536 124.12,195.06 C124.12,195.75 124.12,196.43 124.12,197.11 L124.12,198.11 C124.098742,198.408014 124.118934,198.707536 124.18,199 C124.27985,199.571368 124.622831,200.071245 125.12,200.37 C125.248277,200.423051 125.382634,200.46 125.52,200.48 L126.03,200.48 C126.37,200.48 126.71,200.48 127.03,200.53 C126.7,200.63 126.36,200.71 126.03,200.79 C125.85,200.79 125.7,200.87 125.51,200.9 C125.311987,200.939866 125.108013,200.939866 124.91,200.9 C124.135771,200.641582 123.540131,200.015973 123.32,199.23 C123.210605,198.863173 123.153377,198.482776 123.15,198.1 L123.15,197.1 C123.15,196.42 123.15,195.74 123.15,195.1 C123.107292,192.355043 123.230851,189.610019 123.52,186.88 L123.52,186.88 Z" id="Path" fill="#1D232A"></path>
            <path d="M128.37,182.07 C128.996983,181.231169 129.807695,180.547024 130.74,180.07 C132.655759,179.075139 134.912006,178.972748 136.91,179.79 C137.888038,180.167814 138.749999,180.795321 139.41,181.61 C137.626255,180.993986 135.746527,180.702713 133.86,180.75 C132.948164,180.785093 132.042845,180.919214 131.16,181.15 C130.7,181.24 130.26,181.43 129.79,181.56 C129.32,181.69 128.88,181.94 128.37,182.07 Z" id="Path" fill="#1D232A"></path>
            <path d="M121.84,183.3 C121.32,183.3 120.84,183.22 120.36,183.17 L118.94,183.04 C118.01,183.04 117.1,182.95 116.2,183.04 C114.346488,183.126732 112.528361,183.578716 110.85,184.37 C111.384996,183.487435 112.177076,182.789567 113.12,182.37 C114.055849,181.905335 115.076672,181.636518 116.12,181.58 C117.136048,181.5449 118.150629,181.683559 119.12,181.99 C119.599418,182.147038 120.067232,182.337505 120.52,182.56 C120.97699,182.775055 121.418103,183.022346 121.84,183.3 L121.84,183.3 Z" id="Path" fill="#1D232A"></path>
            <path d="M143.52,209.39 C140.8,212.1 137.13,213.5 133.21,214.7 C117.21,219.57 112.87,209.38 111.15,198.91 C111.15,198.91 126.96,199.4 139.44,193.64 C139.44,193.64 137.64,205.46 143.52,209.39 Z" id="Path" fill="#FFFFFF"></path>
            <path d="M138.28,195.910022 C138.182749,195.909296 138.088223,195.877788 138.01,195.82 C137.898214,195.748495 137.82021,195.634708 137.793823,195.504659 C137.767436,195.37461 137.794924,195.239419 137.87,195.13 L147.62,180.27 C147.772591,180.041863 148.080559,179.979376 148.31,180.13 C148.421786,180.201505 148.49979,180.315292 148.526177,180.445341 C148.552564,180.57539 148.525076,180.710581 148.45,180.82 L138.7,195.68 C138.609545,195.824512 138.450479,195.91162 138.28,195.910022 Z" id="Path" fill="#FFFFFF"></path>
            <path d="M141.7,210.860015 C141.480934,210.861682 141.286285,210.720562 141.219767,210.511833 C141.153248,210.303103 141.230354,210.07538 141.41,209.95 L142.18,209.41 C144.51416,207.751579 146.093423,205.233391 146.57,202.41 L148.36,191.63 C148.390368,191.451367 148.513728,191.302505 148.683612,191.239487 C148.853496,191.17647 149.044095,191.208872 149.183612,191.324487 C149.323129,191.440103 149.390368,191.621367 149.36,191.8 L147.57,202.58 C147.04735,205.662775 145.320535,208.411289 142.77,210.22 L142,210.76 C141.912806,210.823669 141.807956,210.858619 141.7,210.860015 Z" id="Path" fill="#FFFFFF"></path>
            <path d="M116.17,203.92 C117.71,204.03 119.23,204.03 120.74,204 C122.239537,203.955332 123.735302,203.82512 125.22,203.61 C126.701759,203.397793 128.163415,203.063318 129.59,202.61 C131.035342,202.153497 132.442932,201.585111 133.8,200.91 C132.624748,201.927639 131.294708,202.751318 129.86,203.35 C128.422049,203.952285 126.913242,204.368971 125.37,204.59 C122.292357,205.070957 119.145487,204.841783 116.17,203.92 Z" id="Path" fill="#EBEBEB"></path>
            <path d="M120.58,208.53 C122.12,208.64 123.58,208.64 125.14,208.61 C126.642881,208.565755 128.141998,208.435543 129.63,208.22 C131.110888,208.00312 132.572167,207.668731 134,207.22 C135.443276,206.753757 136.850388,206.182222 138.21,205.51 C137.035667,206.528888 135.705417,207.352698 134.27,207.95 C132.83244,208.555508 131.323646,208.975551 129.78,209.2 C126.702156,209.676018 123.556402,209.446925 120.58,208.53 Z" id="Path" fill="#EBEBEB"></path>
            <path d="M125.18,252.47 L131.27,246.78 L143.27,235.48 C145.042142,233.801229 147.066775,232.410981 149.27,231.36 L153.55,229.36 C154.886906,228.723492 155.981574,227.670927 156.67,226.36 L156.67,226.36 L163.42,230.04 L162.42,231.9 L157.89,238.6 C155.787194,241.690103 154.300041,245.156733 153.51,248.81 L151.69,257.12 C150.840164,260.993603 149.751416,264.810899 148.43,268.55 L142.17,286.23 L94.86,282.23 L101.67,243.85 C102.382256,239.851214 103.910691,236.042041 106.16,232.66 L106.69,231.88 L106.34,231.04 L117.63,226.34 C117.63,226.34 123.18,248.34 124.96,252.23 L125.18,252.47 Z" id="Path" fill="#86B0F1"></path>
            <path d="M92.7,299.4 C95.0360464,300.037898 97.1924659,301.208526 99,302.82 L99,302.82 C102.043698,302.823701 105.072305,303.247706 108,304.08 L126.49,309.34 L126.49,309.34 C128.06,309.48 129.64,309.56 131.22,309.58 C134.84805,309.621973 138.465357,309.983369 142.03,310.66 L150.03,312.03 C153.03,310.3 156.6,304.3 157.77,302.23 C157.852746,302.087466 157.894289,301.924756 157.89,301.76 C157.83923,301.359476 157.552596,301.028771 157.163347,300.921618 C156.774098,300.814465 156.358597,300.951887 156.11,301.27 L155.11,302.09 L155.32,301.75 C155.522221,301.414059 155.753079,301.096212 156.01,300.8 L157.13,299.52 L157.13,299.52 C157.36,299.4 162.49,296.74 176.84,298.67 L173.84,306.98 L169.41,319.16 C168.391829,321.94808 167.098794,324.627945 165.55,327.16 L163.38,330.71 C162.153656,332.717896 160.060325,334.038248 157.72,334.28 C142.880081,335.532643 127.973401,332.827356 114.52,326.44 C109.284648,323.987438 104.295354,321.040741 99.62,317.64 C98.7013157,317.135883 97.6139332,317.038019 96.62,317.37 C96.1078082,317.53512 95.5770677,317.635893 95.04,317.67 C90.66,318.04 88.21,316.93 87.12,316.22 C86.5465576,315.840958 85.9447787,315.506637 85.32,315.22 C84.7686121,314.968272 84.2341541,314.681001 83.72,314.36 C84.09,309.89 88,299.54 88,299.54 L88,299.41 L88.44,299.54 L89.54,298.67 C90.6084202,298.842662 91.6641061,299.086539 92.7,299.4 L92.7,299.4 Z" id="Path" fill="#FFC7A8"></path>
            <path d="M83.63,314.34 C84.1441541,314.661001 84.6786121,314.948272 85.23,315.2 C85.8547787,315.486637 86.4565576,315.820958 87.03,316.2 C88.12,316.91 90.57,318.02 94.95,317.65 C95.4870677,317.615893 96.0178082,317.51512 96.53,317.35 C97.5239332,317.018019 98.6113157,317.115883 99.53,317.62 C104.205354,321.020741 109.194648,323.967438 114.43,326.42 C109.06,329.52 99.13,329.78 91.33,329.42 C85.04,329.12 80.14,328.42 80.14,328.42 L74.55,328.42 C70.4520472,328.42 67.13,325.097953 67.13,321 L67.13,321 C67.1337138,315.561725 67.8054099,310.144496 69.13,304.87 L72.53,291.32 C77.0531025,295.081025 82.3274606,297.832419 88,299.39 L88,299.52 C88,299.52 84,309.87 83.63,314.34 Z" id="Path" fill="#F8A386"></path>
            <path d="M196,302.82 C196,302.82 191.33,309.72 180.73,308.63 C178.415165,308.376936 176.140939,307.836093 173.96,307.02 L173.82,307.02 L176.82,298.71 C183.303175,299.620803 189.712873,300.994309 196,302.82 Z" id="Path" fill="#004DC4"></path>
            <path d="M186.31,366.64 C185.563333,366.64 184.813333,366.64 184.06,366.64 C181.45,366.64 178.84,366.64 176.24,366.64 L150.3,365.47 C131.066052,364.049272 112.043963,360.538585 93.57,355 C93.17,357.78 92.78,359.38 92.78,359.38 C90.28,359.693333 87.8633333,359.9 85.53,360 L86.65,356.8 L87.92,353.15 L88.04,352.8 L92.35,340.43 L91.35,329.61 L91.35,329.44 C92.1,329.44 92.86,329.5 93.64,329.53 L94.06,329.53 C95.71,329.58 97.42,329.58 99.13,329.53 C100.01,329.53 100.88,329.46 101.75,329.41 C102.62,329.36 103.3,329.3 104.06,329.22 L105.26,329.08 C106.05,328.98 106.83,328.87 107.59,328.72 C107.97,328.66 108.34,328.58 108.7,328.5 C109.06,328.42 109.58,328.31 110,328.19 L110.82,327.96 C111.1,327.88 111.38,327.79 111.65,327.69 L111.97,327.58 L112.73,327.29 C113.07,327.15 113.41,327 113.73,326.84 L114.45,326.45 C115.26,326.83 116.07,327.2 116.88,327.54 C117.4,327.77 117.88,327.99 118.45,328.2 L119.73,328.72 L121.15,329.26 L122.37,329.7 C122.8,329.86 123.23,330 123.66,330.14 C124.09,330.28 124.51,330.43 124.93,330.56 L126.19,330.95 C126.62,331.08 127.04,331.21 127.45,331.32 C128.7,331.68 129.92,332 131.12,332.32 C131.91,332.51 132.68,332.68 133.45,332.84 C134.22,333 135.11,333.18 135.92,333.32 L136.92,333.5 L136.92,333.5 L138.72,333.78 L140.21,333.98 L141.21,334.1 C142.63,334.27 143.99,334.39 145.28,334.47 L146.28,334.53 C147.22,334.58 148.13,334.61 148.99,334.63 L149.85,334.63 C151.96,334.63 153.85,334.63 155.42,334.49 C156.25,334.49 157,334.37 157.67,334.31 C160.010325,334.068248 162.103656,332.747896 163.33,330.74 L165.5,327.19 C167.045575,324.657671 168.335265,321.977796 169.35,319.19 L170.58,315.81 L173.79,307.01 L173.93,307.01 C174.55,307.23 175.16,307.44 175.75,307.61 C176.04,307.7 176.34,307.79 176.62,307.86 L177.07,307.97 L177.79,308.15 L177.93,308.15 C178.35,308.24 178.75,308.32 179.15,308.38 L179.75,308.47 L180.7,308.59 L180.7,308.71 L180.34,315.13 C180.34,315.13 180.34,315.13 180.34,315.13 L179.34,332.88 L185.42,362.27 L186.31,366.64 Z" id="Path" fill="#86B0F1"></path>
            <path d="M161.16,291.11 C161.575251,290.573467 161.755617,289.891684 161.66,289.22 L161.66,289.09 C161.569834,288.384328 160.971396,287.854283 160.26,287.85 L160,287.85 C159.689953,287.902781 159.371465,287.83479 159.11,287.66 C158.844971,287.490589 158.649747,287.231473 158.56,286.93 C158.44625,286.550121 158.166549,286.242212 157.799312,286.092597 C157.432076,285.942982 157.016833,285.967766 156.67,286.16 L147.55,291.3 C145.97836,292.188029 144.739077,293.564229 144.02,295.22 L143.63,296.13 C143.030704,297.5243 142.132955,298.770227 141,299.78 C139.971994,300.698233 139.076745,301.755031 138.34,302.92 L135.49,307.64 L135.49,307.64 L134.49,309.33 L134.49,309.33 L134.29,309.68 L150,312 C153,310.27 156.57,304.27 157.74,302.2 C157.824058,302.054353 157.865629,301.888069 157.86,301.72 C157.80594,301.321157 157.518032,300.993597 157.129424,300.888804 C156.740815,300.78401 156.327255,300.922411 156.08,301.24 L155.08,302.06 L155.29,301.72 C155.492221,301.384059 155.723079,301.066212 155.98,300.77 L157.1,299.49 L157.1,299.49 L160.35,295.76 C160.935103,295.085822 160.98463,294.099394 160.47,293.37 L159.73,292.37 C160.288048,292.052534 160.774806,291.623642 161.16,291.11 Z" id="Path" fill="#F8A386"></path>
            <path d="M91.13,247.85 C90.88,252.22 90.52,256.57 90.13,260.93 C89.74,265.29 89.29,269.63 88.87,273.93 C88.3806726,278.234945 88.5594483,282.589651 89.4,286.84 C89.79,288.97 90.4,291.04 91.03,293.15 C91.66,295.26 92.2,297.36 92.73,299.48 C91.98,297.48 91.29,295.36 90.57,293.3 C89.85,291.24 89.14,289.15 88.65,287 C87.6748937,282.681641 87.4147734,278.23257 87.88,273.83 C88.38,269.49 88.88,265.14 89.37,260.83 C89.86,256.52 90.47,252.18 91.13,247.85 Z" id="Path" fill="#98BFF5"></path>
            <path d="M170.34,239.16 C165.874068,243.913568 162.507933,249.590932 160.48,255.79 C159.840974,257.857589 159.310252,259.957109 158.89,262.08 C157.89,266.33 156.89,270.58 155.89,274.81 L154.31,281.15 C153.74,283.26 153.21,285.38 152.62,287.48 C152.99,285.33 153.43,283.19 153.83,281.05 L155.14,274.64 C156.03,270.37 157,266.12 157.93,261.86 C158.755918,257.533513 160.222022,253.354273 162.28,249.46 C163.33066,247.529981 164.534525,245.687399 165.88,243.95 C167.230152,242.231464 168.722046,240.629183 170.34,239.16 L170.34,239.16 Z" id="Path" fill="#98BFF5"></path>
            <path d="M106.72,231.9 C104.256179,235.479922 102.604323,239.554955 101.88,243.84 L99.73,256.68 C98.26,265.23 96.84,273.79 95.33,282.34 L94.93,281.82 L118.59,283.76 L142.24,285.76 L141.78,286.06 L146.68,272.3 C147.5,270.01 148.37,267.73 149.12,265.43 C149.87,263.13 150.53,260.79 151.12,258.43 L152.74,251.31 C153.194528,248.904926 153.863877,246.545472 154.74,244.26 C155.67033,241.996971 156.865314,239.852042 158.3,237.87 L162.47,231.87 L158.47,237.97 C157.093285,239.970681 155.961849,242.129475 155.1,244.4 C154.669591,245.529224 154.312188,246.684939 154.03,247.86 C153.76,249.03 153.53,250.24 153.27,251.42 L151.75,258.57 C151.196667,260.95 150.563333,263.31 149.85,265.65 C149.13,267.99 148.29,270.28 147.51,272.58 L142.67,286.36 L142.56,286.69 L142.21,286.69 L118.55,284.74 L94.9,282.69 L94.42,282.69 L94.5,282.22 C96.02,273.68 97.63,265.15 99.2,256.61 L101.6,243.82 C102.416851,239.520795 104.164372,235.452348 106.72,231.9 L106.72,231.9 Z" id="Path" fill="#98BFF5"></path>
            <path d="M160.47,242.3 C159.71,245.09 158.99,247.87 158.38,250.68 C157.77,253.49 157.24,256.3 156.82,259.14 C156.4,261.98 156.04,264.82 155.76,267.68 C155.64,269.11 155.5,270.55 155.44,271.98 C155.38,273.41 155.3,274.86 155.19,276.3 C155.07,274.86 154.98,273.42 154.95,271.97 C154.92,270.52 154.95,269.08 154.95,267.63 C155.064877,264.736329 155.345335,261.851608 155.79,258.99 C156.227846,256.123938 156.832202,253.285802 157.6,250.49 C157.98,249.1 158.41,247.72 158.86,246.34 C159.31,244.96 159.89,243.62 160.47,242.3 Z" id="Path" fill="#98BFF5"></path>
            <path d="M138.21,240.24 C135.48,243.18 132.67,246.03 129.85,248.88 C127.03,251.73 124.16,254.51 121.31,257.32 C118.46,260.13 115.54,262.87 112.61,265.6 L108.2,269.68 C106.7,271.02 105.2,272.38 103.71,273.68 C105.07,272.2 106.47,270.78 107.85,269.32 L112.07,265.04 C114.89,262.2 117.77,259.41 120.61,256.6 C123.45,253.79 126.39,251.05 129.32,248.32 C132.25,245.59 135.19,242.88 138.21,240.24 Z" id="Path" fill="#98BFF5"></path>
            <path d="M153.15,167.2 C149.58,160.2 143.15,152.11 134.91,150.76 C132.83,150.59 130.7,149.95 128.64,150.97 C128.118796,151.235969 127.648324,151.591361 127.25,152.02 C127.081958,151.783601 126.87178,151.580203 126.63,151.42 C123.14,149.2 117.26,152.11 113.99,153.58 C109.52,155.58 106.28,160.58 104.58,165.11 C102.49,170.66 104.43,179.69 109.05,184.11 C108.32,178.94 109.32,173.41 113.05,169.66 C112.369354,171.531001 112.030633,173.509133 112.05,175.5 C111.974663,177.304631 112.024784,179.112316 112.2,180.91 C112.71,179.48 112.68,177.72 113.07,176.21 C113.676355,174.087919 114.55713,172.05407 115.69,170.16 C116.90263,168.221359 118.465996,166.525734 120.3,165.16 C120.74,165 121.17,164.85 121.6,164.74 C122.22,164.57 122.71,164.45 123.15,164.29 C123.21,164.49 123.28,164.69 123.35,164.89 C123.35891,165.640922 123.449442,166.38865 123.62,167.12 C124.49,170.76 127.3,172.59 130.32,174.25 C128.806561,173.372037 127.697303,171.936103 127.23,170.25 C128.127482,171.580196 129.549926,172.464222 131.14,172.68 C134.050262,173.19436 136.778356,174.451625 139.06,176.33 C140.93,178 142.88,179.43 143.94,181.77 C144.59,183.22 145,184.77 145.64,186.22 C144.69,181.38 142.26,175.44 138.46,171.7 C138.84,171.813333 139.22,171.943333 139.6,172.09 C141.402254,172.925542 142.948818,174.227003 144.08,175.86 C145.92,178.37 147.39,183.07 151.08,183.72 C153.91,184.21 155.47,181.34 155.65,179.01 C155.984016,174.913909 155.115151,170.809392 153.15,167.2 L153.15,167.2 Z" id="Path" fill="#1D232A"></path>
            <path d="M127.18,152.89 C126.300452,154.462077 125.522202,156.088721 124.85,157.76 C124.531014,158.584937 124.267101,159.430126 124.06,160.29 C123.83,161.15 123.73,162.03 123.57,162.96 C123.296754,162.056931 123.201657,161.109358 123.29,160.17 C123.362886,159.223988 123.575179,158.29394 123.92,157.41 C124.261033,156.529281 124.707627,155.693176 125.25,154.92 C125.781492,154.14517 126.432984,153.459923 127.18,152.89 L127.18,152.89 Z" id="Path" fill="#1D232A"></path>
            <path d="M222.91,281.88 C220.480183,286.812692 218.984967,292.15275 218.5,297.63 L218.43,297.63 L207.57,295.26 L202.92,289.52 L204.18,285.57 C204.651157,284.108213 204.936728,282.593007 205.03,281.06 L205.03,281.06 C211.002289,280.862815 216.980829,281.136999 222.91,281.88 L222.91,281.88 Z" id="Path" fill="#F1C6B8"></path>
            <path d="M294.55,276.71 C295.087182,276.757722 295.582325,277.020362 295.923111,277.438342 C296.263896,277.856322 296.421438,278.394213 296.36,278.93 C296.275841,279.764166 295.694532,280.46411 294.89,280.7 C293.77668,281.011475 292.62607,281.1696 291.47,281.17 C291.13,281.17 290.8,281.17 290.47,281.17 L289.47,281.09 C288.766338,281.029688 288.057597,281.100901 287.38,281.3 L283.56,282.43 L283.56,282.43 L276.74,282.75 L277.6,281.49 C278.810989,279.700575 280.618573,278.399824 282.7,277.82 L287.43,276.49 C288.347411,276.237743 289.304567,276.163071 290.25,276.27 L294.55,276.71 Z" id="Path" fill="#F1C6B8"></path>
            <path d="M293.4,271.46 C294.467396,271.648186 295.236578,272.588846 295.209053,273.672355 C295.181527,274.755863 294.365574,275.656254 293.29,275.79 L290.23,276.23 C289.284567,276.123071 288.327411,276.197743 287.41,276.45 L282.68,277.78 C280.598573,278.359824 278.790989,279.660575 277.58,281.45 L276.72,282.71 L271.83,282.94 L277,275.6 C277.667319,274.623061 278.659441,273.914403 279.8,273.6 L283.93,272.5 L287.05,271.67 C289.007803,271.156603 291.05075,271.054456 293.05,271.37 L293.4,271.46 Z" id="Path" fill="#F1C6B8"></path>
            <path d="M288.12,266.15 C288.652738,266.877925 288.571902,267.886245 287.93,268.52 L283.93,272.52 L283.93,272.58 L279.8,273.68 C278.659441,273.994403 277.667319,274.703061 277,275.68 L271.84,283.02 L270.55,283.08 L269.88,283.03 L274.88,273.03 L285.65,265.78 C286.441416,265.229827 287.524534,265.392075 288.12,266.15 Z" id="Path" fill="#F1C6B8"></path>
            <path d="M248,234 L248,234 L247,236.34 C244.862441,240.812844 243.025045,245.423039 241.5,250.14 L234.17,232 C234.94,227.62 238.59,222 238.59,222 L243.59,222 C245.977598,225.600393 247.487998,229.710326 248,234 L248,234 Z" id="Path" fill="#2900CD"></path>
            <path d="M309.29,282.2 L309.15,281.29 L308.6,277.65 L307.75,272 L307.63,271.25 L306.89,266.35 L306.89,266.35 L305.98,260.35 L305.56,257.56 L305.37,256.32 L304.88,253.07 L304.75,252.2 L304.75,252.2 L301.55,231 L301.32,229.5 C301.18306,228.596123 300.979166,227.703668 300.71,226.83 C299.265925,222.064143 295.999278,218.060794 291.62,215.69 L275.53,207 L280.7,225.12 L265.83,223.12 L265.72,223.12 C265.451117,223.080897 265.186852,223.215837 265.06086,223.456571 C264.934868,223.697306 264.974615,223.991355 265.16,224.19 L265.53,224.59 L269.75,229.1 L268.32,230.26 L267.83,230.66 C267.14,231.23 266.28,231.93 265.3,232.75 L264.82,233.15 L264.32,233.57 L263.51,234.25 L262.44,235.15 C261.44,235.99 260.38,236.9 259.28,237.86 C255.54,241.09 251.34,244.86 247.68,248.43 L246,250.08 C244.9,251.21 243.86,252.3 242.92,253.35 L242.17,254.21 C241.336502,255.167096 240.555362,256.168558 239.83,257.21 C239.62,257.51 239.43,257.8 239.25,258.08 L239.25,258.08 C239.12,258.61 239,259.13 238.88,259.64 C238.82,259.88 238.77,260.12 238.72,260.36 C238.53,261.22 238.35,262.06 238.19,262.88 C238.19,263.14 238.09,263.39 238.05,263.64 C237.95,264.15 237.86,264.64 237.78,265.12 L237.63,266.03 C237.46,267.03 237.31,268.03 237.19,269.03 C237.103333,269.73 237.023333,270.396667 236.95,271.03 C236.77,272.63 236.66,274.03 236.58,275.33 C236.58,275.68 236.58,276.02 236.53,276.33 C236.46,277.94 236.46,279.18 236.47,279.99 C236.47,280.22 236.47,280.42 236.47,280.58 L236.47,280.58 C236.47,280.7 236.47,280.79 236.47,280.87 C236.473988,280.899867 236.473988,280.930133 236.47,280.96 C236.465292,281.003205 236.465292,281.046795 236.47,281.09 L226.6,280.52 C226.52,280.9 226.45,281.27 226.39,281.65 C225.114793,288.314356 224.475256,295.084739 224.479974,301.87 C224.479974,304.05 224.55,306.22 224.68,308.4 L225.33,318.7 L237.62,318.07 L265.7,316.64 L265.7,316.64 L291.2,315.34 C292.177686,315.290091 293.146882,315.132471 294.09,314.87 C296.692688,314.14002 299.016303,312.645521 300.76,310.58 L300.82,310.51 C301.592573,309.570469 302.235021,308.531118 302.73,307.42 L307.23,297.3 C309.345843,292.567031 310.06074,287.326768 309.29,282.2 Z M274.85,273 L285.62,265.75 C286.434977,265.195424 287.543341,265.390496 288.12,266.19 C288.654578,266.919084 288.5692,267.930813 287.92,268.56 L283.92,272.56 L283.92,272.62 L287.04,271.79 C288.997625,271.275449 291.040812,271.17329 293.04,271.49 L293.37,271.49 L293.67,271.56 L293.67,271.56 L293.78,271.56 L293.91,271.61 L293.91,271.61 L293.91,271.61 C294.003838,271.654858 294.091275,271.712029 294.17,271.78 C294.17,271.78 294.17,271.78 294.17,271.78 C294.24546,271.821303 294.31314,271.875447 294.37,271.94 L294.46,272.02 C294.518362,272.071714 294.571914,272.128614 294.62,272.19 C294.691298,272.271933 294.751792,272.362673 294.8,272.46 C294.849938,272.538188 294.890231,272.622131 294.92,272.71 C294.94265,272.750788 294.95948,272.794546 294.97,272.84 C294.997926,272.918588 295.021298,272.998721 295.04,273.08 C295.044652,273.113171 295.044652,273.146829 295.04,273.18 C295.050324,273.293098 295.050324,273.406902 295.04,273.52 C295.039494,273.681838 295.019347,273.843017 294.98,274 C294.957945,274.091303 294.931244,274.18142 294.9,274.27 C294.882736,274.32898 294.859272,274.385965 294.83,274.44 L294.77,274.56 L294.77,274.56 C294.73918,274.620242 294.702324,274.677201 294.66,274.73 C294.608963,274.807516 294.552134,274.881059 294.49,274.95 C294.131196,275.353054 293.636215,275.609447 293.1,275.67 L290.04,276.11 L294.36,276.59 C294.897182,276.637722 295.392325,276.900362 295.733111,277.318342 C296.073896,277.736322 296.231438,278.274213 296.17,278.81 C296.085841,279.644166 295.504532,280.34411 294.7,280.58 C293.586529,280.890744 292.436019,281.048855 291.28,281.05 C290.94,281.05 290.61,281.05 290.28,281.05 L289.28,280.97 C288.576331,280.908745 287.867416,280.979976 287.19,281.18 L283.36,282.31 L282.99,282.31 L282.99,282.31 L281.9,282.31 L276.55,282.56 L271.66,282.79 L270.37,282.85 L269.7,282.8 L270.24,281.72 L274.85,273 Z" id="Shape" fill="#FFFFFF"></path>
            <path d="M295.07,328.3 L295.07,328.3 L294.89,325.77 L294.89,325.77 L294.15,315.24 L294.15,314.86 C293.206882,315.122471 292.237686,315.280091 291.26,315.33 L265.76,316.63 L265.76,316.63 L237.64,318 L237.64,362.56 C254.642026,360.204905 271.481177,356.794994 288.06,352.35 C287.76,353.69 287.46,355.04 287.19,356.35 C287.66,354.97 288.07,353.58 288.5,352.19 C291.24,351.45 293.94,350.686667 296.6,349.9 L295.07,328.3 Z M275.44,350.71 L266.51,351.39 C264.31585,351.558018 262.14507,350.845694 260.477055,349.410338 C258.809039,347.974981 257.781011,345.934675 257.62,343.74 L256.62,330.57 C272.81,332.5 281.86,328.93 281.86,328.93 L283.03,341.69 C283.229392,343.894706 282.539798,346.087714 281.114508,347.781537 C279.689218,349.47536 277.646344,350.529633 275.44,350.71 L275.44,350.71 Z" id="Shape" fill="#FFFFFF"></path>
            <path d="M283.06,341.69 C283.253618,343.89463 282.558756,346.085287 281.1298,347.775248 C279.700845,349.465208 277.656146,350.514504 275.45,350.69 L266.52,351.37 C264.324198,351.540805 262.150825,350.829748 260.4806,349.394106 C258.810375,347.958463 257.780943,345.916547 257.62,343.72 L256.62,330.55 C272.82,332.48 281.87,328.91 281.87,328.91 L283.06,341.69 Z" id="Path" fill="#E5F4F7"></path>
            <path d="M241.5,250.12 C243.025045,245.403039 244.862441,240.792844 247,236.32 L248,233.98 L248,233.98 L251.64,225.11 L256.31,215.42 C258.500087,210.981508 259.377801,206.010108 258.84,201.09 C258.723534,199.853082 258.447924,198.636367 258.02,197.47 L275.53,207 L280.7,225.12 L265.7,223.12 C265.431117,223.080897 265.166852,223.215837 265.04086,223.456571 C264.914868,223.697306 264.954615,223.991355 265.14,224.19 L269.73,229.1 C269.73,229.1 244.79,249.1 239.22,258.1 C239.34,257.59 239.46,257.1 239.6,256.57 C240.15,254.48 240.77,252.33 241.5,250.12 Z" id="Path" fill="#E5F4F7"></path>
            <path d="M234.17,232 L241.5,250.13 C240.77,252.34 240.15,254.49 239.62,256.53 L239.23,256.43 C232.9,245.7 213.06,229.94 213.06,229.94 L218.57,224.25 C218.771409,224.037927 218.803428,223.716298 218.647782,223.46868 C218.492136,223.221062 218.18843,223.11046 217.91,223.2 C214.774025,224.096555 211.570029,224.735347 208.33,225.11 C206.83,221.57 207.22,212.7 207.22,212.7 C215.83,208.19 223.29,203.86 224.03,203.43 C223.966491,207.586298 224.888319,211.69854 226.72,215.43 L231.39,225.12 L234.17,232 Z" id="Path" fill="#E5F4F7"></path>
            <path d="M205,281.05 C204.906728,282.583007 204.621157,284.098213 204.15,285.56 L202.89,289.51 L207.54,295.25 L218.4,297.62 L218.47,297.62 C218.42,298.3 218.4,298.97 218.4,299.62 L224.47,301.78 C224.47,303.96 224.54,306.13 224.68,308.31 L225.32,318.61 L237.61,317.98 L237.61,318.1 C235.942759,321.437621 232.40717,323.419453 228.69,323.1 L188.3,319.76 C183.573917,319.36684 179.648208,315.955116 178.6,311.33 L174.32,292.33 C173.335328,287.945433 173.294423,283.401583 174.2,279 L183.84,232.29 C185.119992,226.403064 189.116041,221.472005 194.61,219 C198.67,217.15 203.07,214.93 207.22,212.74 C207.22,212.74 206.83,221.61 208.33,225.15 C211.570029,224.775347 214.774025,224.136555 217.91,223.24 C218.18843,223.15046 218.492136,223.261062 218.647782,223.50868 C218.803428,223.756298 218.771409,224.077927 218.57,224.29 L213.06,229.98 C213.06,229.98 232.9,245.74 239.23,256.47 L239.62,256.57 C239.48,257.09 239.36,257.57 239.24,258.1 L239.24,258.1 C235.87,271.88 236.5,281.1 236.5,281.1 L226.63,280.53 C226.55,280.91 226.49,281.28 226.42,281.66 L226.42,281.66 L223.22,281.37 L222.93,281.93 C217.004398,281.184184 211.029222,280.906658 205.06,281.1 L205,281.05 Z" id="Path" fill="#FFFFFF"></path>
            <path d="M228.73,323.16 L188.33,319.82 L185.41,362.32 L184.06,366.67 C184.813333,366.67 185.563333,366.67 186.31,366.67 C190.25,366.61 194.19,366.486667 198.13,366.3 L210.61,365.54 C219.72,364.85 228.76,363.86 237.61,362.62 L237.61,318.15 C235.951271,321.477113 232.43549,323.460678 228.73,323.16 L228.73,323.16 Z M225.35,345.86 C225.188989,348.054675 224.160961,350.094981 222.492945,351.530338 C220.82493,352.965694 218.65415,353.678018 216.46,353.51 L207.53,352.83 C205.322813,352.657124 203.276478,351.608561 201.846986,349.917966 C200.417493,348.22737 199.723626,346.035221 199.92,343.83 L201.08,331.07 C201.08,331.07 210.08,334.64 226.32,332.71 L225.35,345.86 Z" id="Shape" fill="#FFFFFF"></path>
            <path d="M222.91,281.88 L223.2,281.32 L226.4,281.61 L226.4,281.61 C225.124793,288.274356 224.485256,295.044739 224.49,301.83 L218.42,299.67 C218.42,298.98 218.42,298.31 218.49,297.67 C218.973238,292.178446 220.471974,286.824362 222.91,281.88 Z" id="Path" fill="#98BFF5"></path>
            <path d="M226.32,332.69 L225.32,345.86 C225.156458,348.055533 224.126288,350.095838 222.456685,351.530947 C220.787081,352.966055 218.61519,353.678083 216.42,353.51 L207.49,352.83 C205.282813,352.657124 203.236478,351.608561 201.806986,349.917966 C200.377493,348.22737 199.683626,346.035221 199.88,343.83 L201.04,331.07 C201.04,331.07 210.13,334.62 226.32,332.69 Z" id="Path" fill="#E5F4F7"></path>
            <path d="M188.33,319.82 C192.62,319.97 196.89,320.22 201.17,320.5 C205.45,320.78 209.71,321.13 213.98,321.44 C218.25,321.75 222.52,322.19 226.78,322.62 C227.827988,322.760882 228.882897,322.84434 229.94,322.87 C230.969107,322.83672 231.984439,322.6235 232.94,322.24 C234.927669,321.461579 236.582359,320.015494 237.62,318.15 C236.723878,320.158071 235.128025,321.771696 233.13,322.69 C232.123926,323.149344 231.043342,323.423724 229.94,323.5 C228.855461,323.524317 227.770413,323.487593 226.69,323.39 C222.41,323.11 218.14,322.75 213.87,322.44 C209.6,322.13 205.34,321.7 201.08,321.26 C196.82,320.82 192.58,320.38 188.33,319.82 Z" id="Path" fill="#E5F4F7"></path>
            <path d="M218.42,297.62 C213.277427,297.18862 208.21397,296.08246 203.36,294.33 C205.932077,294.525199 208.4859,294.912953 211,295.49 C213.522445,296.016174 216.002537,296.728114 218.42,297.62 Z" id="Path" fill="#E5F4F7"></path>
            <path d="M207.58,295.25 C205.94,293.4 204.35,291.52 202.75,289.65 L202.67,289.56 L202.67,289.44 L203.67,286.03 C204.026365,284.913508 204.290584,283.769676 204.46,282.61 C204.764269,280.303921 204.666147,277.962536 204.17,275.69 C203.17,271.07 201.83,266.51 200.62,261.93 C199.41,257.35 198.02,252.81 196.74,248.24 L192.83,234.56 C194.46,239.02 195.97,243.56 197.42,248.04 C198.87,252.52 200.22,257.11 201.54,261.67 C202.86,266.23 204.01,270.85 205.03,275.5 C205.532758,277.876424 205.576883,280.327017 205.16,282.72 C204.952677,283.908296 204.641484,285.076108 204.23,286.21 L203.09,289.58 L203.09,289.37 C204.59,291.33 206.1,293.27 207.58,295.25 Z" id="Path" fill="#E5F4F7"></path>
            <path d="M183.91,285.54 C185.542384,285.264934 187.194609,285.124462 188.85,285.12 C190.528036,285.122761 192.202086,285.28347 193.85,285.6 C195.488267,285.925121 197.089665,286.414251 198.63,287.06 C200.162173,287.702236 201.61239,288.524697 202.95,289.51 C201.42,288.89 199.95,288.28 198.36,287.79 C196.81624,287.302416 195.247292,286.898496 193.66,286.58 C192.069878,286.268087 190.46427,286.041099 188.85,285.9 C187.2,285.74 185.56,285.68 183.91,285.54 Z" id="Path" fill="#E5F4F7"></path>
            <path d="M265.72,316.6 C267.24,316.41 268.72,316.29 270.28,316.13 L274.84,315.75 C277.84,315.51 280.93,315.34 283.98,315.17 L288.55,314.97 C290.09,314.91 291.6,314.89 293.09,314.7 C296.062429,314.156037 298.782184,312.67349 300.85,310.47 C299.97385,311.747871 298.839431,312.827783 297.52,313.64 C296.852555,314.045368 296.153644,314.396495 295.43,314.69 L294.37,315.1 L294.29,315.1 L294.1,315.19 L293.79,315.28 L293.21,315.41 C291.691984,315.665624 290.158553,315.819301 288.62,315.87 L284.04,316.13 C280.99,316.27 277.94,316.42 274.89,316.48 L270.3,316.57 C268.77,316.61 267.25,316.64 265.72,316.6 Z" id="Path" fill="#E5F4F7"></path>
            <path d="M200.23,238.1 C200.95112,240.287879 201.519157,242.523276 201.93,244.79 C202.354588,247.051869 202.655038,249.335285 202.83,251.63 C203.011665,253.932081 203.048404,256.243308 202.94,258.55 C202.851872,260.851713 202.577643,263.142521 202.12,265.4 C202.12,264.24 202.22,263.11 202.18,261.96 L202.18,260.25 L202.18,258.54 C202.12,256.26 202.04,253.98 201.84,251.71 C201.64,249.44 201.44,247.17 201.18,244.9 C201.05,243.77 200.9,242.64 200.73,241.5 C200.56,240.36 200.4,239.24 200.23,238.1 Z" id="Path" fill="#E5F4F7"></path>
            <path d="M256.88,246.87 C256.731985,246.87 256.585566,246.839419 256.45,246.78 C255.95026,246.545209 255.735383,245.949823 255.97,245.45 C274.97,205.1 257.44,195.26 257.26,195.17 C256.771228,194.910426 256.585426,194.303772 256.845,193.815 C257.104574,193.326228 257.711228,193.140426 258.2,193.4 C259,193.82 277.56,204.24 257.78,246.3 C257.614597,246.647284 257.264659,246.868911 256.88,246.87 L256.88,246.87 Z" id="Path" fill="#404040"></path>
            <path d="M214,235.000003 C213.473936,235.00129 213.036823,234.594775 213,234.07 C210.84,202.39 224.28,199.42 224.85,199.31 C225.111354,199.257139 225.382996,199.310845 225.60457,199.459187 C225.826143,199.607529 225.979297,199.838219 226.03,200.1 C226.133912,200.64103 225.780663,201.164196 225.24,201.27 C225.08,201.27 212.98,204.27 214.99,233.93 C215.009333,234.205392 214.913957,234.476524 214.726469,234.679163 C214.538981,234.881802 214.276062,234.997917 214,235.000003 Z" id="Path" fill="#404040"></path>
            <path d="M221.83,280.52 C220.704692,280.517551 219.599052,280.224781 218.62,279.67 C209.29,274.54 206.23,247.67 206.11,246.48 L207.11,246.37 C207.11,246.65 210.23,273.92 219.11,278.8 C220.877389,279.790345 223.032611,279.790345 224.8,278.8 L225.25,279.7 C224.187778,280.231467 223.017732,280.512004 221.83,280.52 Z" id="Path" fill="#C5C5C5"></path>
            <path d="M216.63,280.74001 C215.002774,280.613667 213.469373,279.92823 212.29,278.8 L212.93,278.03 C214.88,279.64 216.56,280.12 217.93,279.43 C220.84,277.97 222.74,271.43 223.42,260.48 C223.94,252.11 223.53,244.09 223.53,244.01 L224.53,243.95 C224.6,245.28 226.13,276.43 218.39,280.32 C217.844896,280.597468 217.241657,280.741423 216.63,280.74001 L216.63,280.74001 Z" id="Path" fill="#C5C5C5"></path>
            <path d="M261.17,253.74 C258.93,256.56 255.17,257.31 252.79,255.42 C250.41,253.53 250.29,249.7 252.53,246.88 C254.77,244.06 258.53,243.31 260.9,245.2 C263.27,247.09 263.41,250.92 261.17,253.74 Z" id="Path" fill="#A7A7A7"></path>
            <path d="M257.79,250.19 C256.745205,251.129814 255.148458,251.090628 254.151022,250.100695 C253.153585,249.110762 253.102342,247.514357 254.03424,246.462494 C254.966138,245.410632 256.557084,245.269125 257.66,246.14 C258.806315,247.226067 258.864304,249.032654 257.79,250.19 L257.79,250.19 Z" id="Path" fill="#C5C5C5"></path>
            <path d="M205.66,246.74 C205.58,246.49 203.74,240.67 206.38,236 C207.951994,233.360344 210.594701,231.53527 213.62,231 L213.76,231 C216.523937,230.854365 219.234732,231.798655 221.31,233.63 C223.78,235.89 225.03,239.37 225.03,243.98 L223.03,243.98 C223.03,239.98 222.03,236.98 219.98,235.12 C218.298294,233.444067 215.916923,232.672744 213.571988,233.044454 C211.227053,233.416163 209.200963,234.886139 208.12,237 C205.91,240.89 207.54,246.09 207.56,246.14 L205.66,246.74 Z" id="Path" fill="#404040"></path>
            <path d="M228,278.62 C228.13,279.28 227.45,279.97 226.48,280.15 C225.51,280.33 224.63,279.94 224.48,279.28 C224.33,278.62 225.03,277.92 225.99,277.74 C226.95,277.56 227.88,278 228,278.62 Z" id="Path" fill="#A7A7A7"></path>
            <path d="M212.81,278.76 C212.47,279.35 211.51,279.43 210.66,278.94 C209.81,278.45 209.4,277.57 209.73,276.94 C210.06,276.31 211.04,276.28 211.89,276.77 C212.74,277.26 213.15,278.17 212.81,278.76 Z" id="Path" fill="#A7A7A7"></path>
            <path d="M258.19,185.3 L258.19,194.74 C258.337891,200.762341 255.209551,206.391598 250.017304,209.446272 C244.825056,212.500946 238.384944,212.500946 233.192696,209.446272 C228.000449,206.391598 224.872109,200.762341 225.02,194.74 L225.02,185.3 L258.19,185.3 Z" id="Path" fill="#F1C6B8"></path>
            <path d="M258.190001,185.3 L258.190001,194.74 C258.191868,199.174564 256.41612,203.424833 253.26,206.54 C236.41,203.35 230.16,185.3 230.16,185.3 L258.190001,185.3 Z" id="Path" fill="#F9B09E"></path>
            <circle id="Oval" fill="#F9B09E" cx="220.74" cy="167.8" r="5.59"></circle>
            <circle id="Oval" fill="#F9B09E" cx="262.47" cy="167.8" r="5.59"></circle>
            <path d="M241.6,195.580002 L241.6,195.580002 C230.07934,195.580002 220.74,186.24066 220.74,174.72 L220.74,140 L262.470002,140 L262.470002,174.71 C262.472654,180.245881 260.27471,185.55579 256.36025,189.47025 C252.44579,193.38471 247.135881,195.582654 241.6,195.580002 L241.6,195.580002 Z" id="Path" fill="#F1C6B8"></path>
            <path d="M237.47,172.89 C238.059075,173.190595 238.679488,173.425346 239.32,173.59 C239.915555,173.753776 240.532827,173.824611 241.15,173.8 C241.772232,173.779587 242.389861,173.6856 242.99,173.52 C243.3,173.45 243.6,173.32 243.92,173.23 C244.24,173.14 244.54,172.99 244.92,172.89 C244.703087,173.170483 244.458524,173.428447 244.19,173.66 C243.910473,173.87844 243.612714,174.072485 243.3,174.24 C242.651249,174.5828 241.933298,174.774253 241.2,174.8 C239.704719,174.875466 238.282794,174.147349 237.47,172.89 L237.47,172.89 Z" id="Path" fill="#420103"></path>
            <path d="M232.56,166 C232.56,165.337258 232.022742,164.8 231.36,164.8 C230.697258,164.8 230.16,165.337258 230.16,166 C230.16,166.662742 230.697258,167.2 231.36,167.2 C232.022742,167.2 232.56,166.662742 232.56,166 L232.56,166 Z" id="Path" fill="#420103"></path>
            <path d="M224.74,162.43 C225.119269,161.207082 225.953232,160.176261 227.07,159.55 C228.157263,158.89899 229.377734,158.502423 230.64,158.39 C231.86271,158.255406 233.099236,158.322975 234.3,158.59 C234.885531,158.736316 235.46299,158.913225 236.03,159.12 C236.590409,159.350993 237.132037,159.62515 237.65,159.94 C237.060532,160.028417 236.465952,160.078522 235.87,160.09 C235.29,160.09 234.71,160.16 234.15,160.15 C233.03,160.22 231.93,160.24 230.86,160.37 C229.799742,160.468473 228.751514,160.669411 227.73,160.97 C226.654519,161.275191 225.642027,161.769585 224.74,162.43 Z" id="Path" fill="#52352B"></path>
            <path d="M226.33,166.34 C227.629275,165.033613 229.369697,164.259696 231.21,164.17 C232.126679,164.111831 233.046102,164.227183 233.92,164.51 C234.351748,164.645387 234.772896,164.812509 235.18,165.01 C235.58,165.23 235.96,165.47 236.33,165.72 C235.520672,165.364115 234.680511,165.082946 233.82,164.88 C232.973896,164.690718 232.105577,164.620041 231.24,164.67 C230.370185,164.711585 229.511112,164.88003 228.69,165.17 C227.855185,165.454233 227.061636,165.847645 226.33,166.34 L226.33,166.34 Z" id="Path" fill="#420103"></path>
            <path d="M249.39,166 C249.39,165.514645 249.682371,165.077082 250.13078,164.891345 C250.579189,164.705607 251.095331,164.808274 251.438528,165.151472 C251.781726,165.494669 251.884393,166.010811 251.698655,166.45922 C251.512918,166.907629 251.075355,167.2 250.59,167.2 C249.927258,167.2 249.39,166.662742 249.39,166 Z" id="Path" fill="#420103"></path>
            <path d="M257.21,162.43 C256.305507,161.767596 255.289367,161.273074 254.21,160.97 C253.188486,160.669411 252.140258,160.468473 251.08,160.37 C250.01,160.24 248.91,160.22 247.79,160.15 C247.23,160.15 246.65,160.15 246.07,160.09 C245.47075,160.078123 244.872869,160.028021 244.28,159.94 C244.802493,159.627072 245.347297,159.352999 245.91,159.12 C246.476545,158.911843 247.054079,158.734911 247.64,158.59 C248.840764,158.322975 250.07729,158.255406 251.3,158.39 C252.562266,158.502423 253.782737,158.89899 254.87,159.55 C255.990548,160.174302 256.828301,161.205383 257.21,162.43 L257.21,162.43 Z" id="Path" fill="#52352B"></path>
            <path d="M255.63,166.34 C254.894952,165.847366 254.098062,165.453965 253.26,165.17 C252.442303,164.880153 251.586545,164.711697 250.72,164.67 C249.854423,164.620041 248.986104,164.690718 248.14,164.88 C247.276667,165.084416 246.433316,165.365533 245.62,165.72 C246,165.47 246.38,165.23 246.78,165.01 C247.187104,164.812509 247.608252,164.645387 248.04,164.51 C248.913794,164.226712 249.833306,164.111349 250.75,164.17 C252.590303,164.259696 254.330725,165.033613 255.63,166.34 L255.63,166.34 Z" id="Path" fill="#420103"></path>
            <path d="M234.15,178.58 C234.15,178.58 239.42,180.49 249.39,178.58 C249.39,178.58 247.88,184.81 241.39,184.81 C234.9,184.81 234.15,178.58 234.15,178.58 Z" id="Path" fill="#FFFFFF"></path>
            <path d="M247,214.38 L243.61,222 L238.61,222 L236,214.38 C237.302971,212.490723 238.790262,210.735451 240.44,209.14 L242.55,209.14 C244.204776,210.733512 245.695569,212.488963 247,214.38 Z" id="Path" fill="#2900CD"></path>
            <path d="M258.8,201.08 C259.337801,206.000108 258.460087,210.971508 256.27,215.41 L251.6,225.1 C250.898419,221.224376 249.325501,217.558793 247,214.38 C245.695569,212.488963 244.204776,210.733512 242.55,209.14 C251.1,206.14 257.98,197.46 257.98,197.46 C258.407924,198.626367 258.683534,199.843082 258.8,201.08 Z" id="Path" fill="#98BFF5"></path>
            <path d="M251.6,225.1 L248,234 C247.494032,229.712018 245.990526,225.602207 243.61,222 L247,214.36 C249.328268,217.54466 250.901314,221.217381 251.6,225.1 L251.6,225.1 Z" id="Path" fill="#86B0F1"></path>
            <path d="M236,214.38 L238.59,222.02 C238.59,222.02 234.94,227.61 234.17,232.02 L231.39,225.13 C232.085471,221.241609 233.662474,217.564217 236,214.38 Z" id="Path" fill="#86B0F1"></path>
            <path d="M224,203.42 C224,202.64 224.07,201.86 224.16,201.08 C224.281279,199.843855 224.556752,198.627743 224.98,197.46 C224.98,197.46 231.85,206.18 240.41,209.14 C238.760262,210.735451 237.272971,212.490723 235.97,214.38 C233.636648,217.555427 232.059841,221.222103 231.36,225.1 L226.69,215.41 C224.859861,211.681562 223.938074,207.57293 224,203.42 L224,203.42 Z" id="Path" fill="#98BFF5"></path>
            <path d="M237.9,188.07 C238.54,188.15 239.14,188.22 239.73,188.26 C240.32,188.3 240.9,188.34 241.49,188.32 C242.08,188.3 242.66,188.32 243.25,188.23 C243.84,188.14 244.44,188.1 245.1,188.07 C244.075426,188.880949 242.80667,189.321489 241.5,189.320011 C240.848235,189.321212 240.200329,189.219977 239.58,189.02 C238.952083,188.842247 238.375965,188.516467 237.9,188.07 L237.9,188.07 Z" id="Path" fill="#420103"></path>
            <path d="M266.08,140.88 C265.297985,139.954602 264.250865,139.291425 263.08,138.98 C263.121267,138.952107 263.158312,138.91843 263.19,138.88 C263.01,134.88 262.73,132.36 260.43,131.39 C257.43,130.1 254.66,132.57 252,130.79 C248,128.11 244.64,128.46 240.12,129.28 C237.26,129.8 235.73,128.02 233.25,126.42 C227.54,122.72 217.95,117.63 213.39,126.23 C210.22,132.23 210.93,141.31 215.6,145.61 C216.17897,146.143118 216.859073,146.55458 217.6,146.82 C217.237885,148.455645 217.303322,150.157001 217.79,151.76 C218.18,153.66 218.17,155.54 218.64,157.43 C219.179337,159.626146 219.891558,161.776186 220.77,163.86 C221.77,162.41 221.59,160.64 221.62,158.94 C221.62,157.41 222.23,156.62 222.62,155.29 C222.731354,154.669316 222.791556,154.040537 222.8,153.41 C222.8981,152.895351 223.084156,152.401457 223.35,151.95 C223.75,150.95 224.35,148.78 223.84,147.45 C224.61,147.45 225.35,147.45 226.04,147.45 C232.36,147.7 238.13,147.85 244.38,146.57 C247.722715,145.815203 250.982086,144.729863 254.11,143.33 C255.33,142.82 256.73,142.33 258.11,141.83 C257.797789,142.996097 257.706218,144.210266 257.84,145.41 C258.06,146.7 258.17,148.71 259.02,149.72 C259.48,150.26 260.16,150.49 260.5,151.13 C261.24,152.52 260.3,154.62 260.76,156.13 C261.16,157.51 262,158.13 261.99,159.67 C261.98,161.21 261.65,163.37 262.67,164.47 C264.03,162.56 265.54,161.05 266.37,158.79 C267.370173,155.851555 267.860572,152.763733 267.82,149.66 C267.87,146.74 268.13,143.29 266.08,140.88 Z" id="Path" fill="#52352B"></path>
            <path d="M233.38,172 C233.38,173.25 231.27,174.27 228.68,174.27 C226.09,174.27 223.97,173.27 223.97,172 C223.97,170.73 226.08,169.73 228.68,169.73 C231.28,169.73 233.38,170.79 233.38,172 Z" id="Path" fill="#FCB094"></path>
            <path d="M259.23,172 C259.23,173.25 257.12,174.27 254.52,174.27 C251.92,174.27 249.82,173.27 249.82,172 C249.82,170.73 251.93,169.73 254.52,169.73 C257.11,169.73 259.23,170.79 259.23,172 Z" id="Path" fill="#FCB094"></path>
            <path d="M292,228.37 C285.271833,232.521364 281.188165,239.87424 281.22,247.78 C281.12,261.43 280.67,266.92 280.67,266.92 L292,228.37 Z" id="Path" fill="#E5F4F7"></path>
            <polygon id="Path" fill="#E5F4F7" points="293.45 284.72 283.55 282.39 226.49 280.15"></polygon>
            <path d="M258.82,3.2 C258.82,3.2 255.28,-4.63 225.72,9.28 C196.16,23.19 130.94,51 138.77,60.58 C146.6,70.16 170.94,64.93 192.68,60.58 C214.42,56.23 275.41,34.5 258.82,3.2 Z" id="Path" fill="url(#linearGradient-8)" style="mix-blend-mode: color-burn;"></path>
            <path d="M129.06,63.66 C129.06,63.66 125.06,58.9 114.78,63.66 C104.5,68.42 106.05,78.77 114.78,79.94 C123.51,81.11 136.21,70 129.06,63.66 Z" id="Path" fill="url(#linearGradient-9)"></path>
            <path d="M96.85,360.0704 C94.35,360.383733 91.9333333,360.5904 89.6,360.6904 C41.6,362.8604 30,322.5404 30,322.5404 C32.5129344,322.170831 35.0500554,321.990324 37.59,322.0004 C41.7165754,322.01798 45.8260687,322.531666 49.83,323.5304 C69.96,328.5304 84.93,344.3804 92.11,353.5304 L92.54,354.0704 C95.35,357.6504 96.85,360.0704 96.85,360.0704 Z" id="Path" fill="#BAE7EB"></path>
        </g>
    </g>
</svg>